<mxfile host="app.diagrams.net" agent="Mozilla/5.0 (Windows NT 10.0; Win64; x64) AppleWebKit/537.36 (KHTML, like Gecko) Chrome/138.0.0.0 Safari/537.36 Edg/138.0.0.0" version="28.0.4">
  <diagram name="PÃ¡gina-1" id="XMACLO9jcw7Mw6NAKRQN">
    <mxGraphModel dx="1148" dy="623" grid="1" gridSize="10" guides="1" tooltips="1" connect="1" arrows="1" fold="1" page="1" pageScale="1" pageWidth="827" pageHeight="1169" math="0" shadow="0">
      <root>
        <mxCell id="0" />
        <mxCell id="1" parent="0" />
        <mxCell id="ILp8-n_kelNuU-kEh7t1-494" style="edgeStyle=orthogonalEdgeStyle;rounded=0;orthogonalLoop=1;jettySize=auto;html=1;entryX=0.5;entryY=0;entryDx=0;entryDy=0;endArrow=none;startFill=0;" parent="1" source="ILp8-n_kelNuU-kEh7t1-1" target="ILp8-n_kelNuU-kEh7t1-493" edge="1">
          <mxGeometry relative="1" as="geometry">
            <Array as="points">
              <mxPoint x="100" y="247" />
              <mxPoint x="60" y="247" />
            </Array>
          </mxGeometry>
        </mxCell>
        <mxCell id="ILp8-n_kelNuU-kEh7t1-1" value="&lt;span style=&quot;font-weight: 700;&quot;&gt;Residencia&lt;/span&gt;" style="rounded=1;whiteSpace=wrap;html=1;" parent="1" vertex="1">
          <mxGeometry x="80" y="75" width="120" height="60" as="geometry" />
        </mxCell>
        <mxCell id="ILp8-n_kelNuU-kEh7t1-19" value="" style="group" parent="1" vertex="1" connectable="0">
          <mxGeometry x="270" y="120" width="190" height="190" as="geometry" />
        </mxCell>
        <mxCell id="ILp8-n_kelNuU-kEh7t1-20" value="" style="ellipse;whiteSpace=wrap;html=1;aspect=fixed;fillColor=#0000FF;" parent="ILp8-n_kelNuU-kEh7t1-19" vertex="1">
          <mxGeometry y="-80" width="10" height="10" as="geometry" />
        </mxCell>
        <mxCell id="ILp8-n_kelNuU-kEh7t1-21" value="&lt;span style=&quot;text-wrap-mode: wrap;&quot;&gt;ResidenciaId&lt;/span&gt;" style="text;html=1;align=left;verticalAlign=middle;resizable=0;points=[];autosize=1;strokeColor=none;fillColor=none;" parent="ILp8-n_kelNuU-kEh7t1-19" vertex="1">
          <mxGeometry x="20" width="90" height="30" as="geometry" />
        </mxCell>
        <mxCell id="ILp8-n_kelNuU-kEh7t1-14" value="" style="group" parent="ILp8-n_kelNuU-kEh7t1-19" vertex="1" connectable="0">
          <mxGeometry y="-70" width="190" height="170" as="geometry" />
        </mxCell>
        <mxCell id="ILp8-n_kelNuU-kEh7t1-9" value="" style="ellipse;whiteSpace=wrap;html=1;aspect=fixed;fillColor=#FFFFFF;" parent="ILp8-n_kelNuU-kEh7t1-14" vertex="1">
          <mxGeometry y="10" width="10" height="10" as="geometry" />
        </mxCell>
        <mxCell id="ILp8-n_kelNuU-kEh7t1-13" value="&lt;span style=&quot;text-wrap-mode: wrap;&quot;&gt;TipoDoImovel&lt;/span&gt;" style="text;html=1;align=left;verticalAlign=middle;resizable=0;points=[];autosize=1;strokeColor=none;fillColor=none;" parent="ILp8-n_kelNuU-kEh7t1-14" vertex="1">
          <mxGeometry x="20" width="100" height="30" as="geometry" />
        </mxCell>
        <mxCell id="ILp8-n_kelNuU-kEh7t1-16" value="" style="group" parent="ILp8-n_kelNuU-kEh7t1-14" vertex="1" connectable="0">
          <mxGeometry y="20" width="190" height="150" as="geometry" />
        </mxCell>
        <mxCell id="ILp8-n_kelNuU-kEh7t1-17" value="" style="ellipse;whiteSpace=wrap;html=1;aspect=fixed;fillColor=#FFFFFF;" parent="ILp8-n_kelNuU-kEh7t1-16" vertex="1">
          <mxGeometry y="10" width="10" height="10" as="geometry" />
        </mxCell>
        <mxCell id="ILp8-n_kelNuU-kEh7t1-18" value="&lt;span style=&quot;text-wrap-mode: wrap;&quot;&gt;NomeDoMorador&lt;/span&gt;" style="text;html=1;align=left;verticalAlign=middle;resizable=0;points=[];autosize=1;strokeColor=none;fillColor=none;" parent="ILp8-n_kelNuU-kEh7t1-16" vertex="1">
          <mxGeometry x="20" width="120" height="30" as="geometry" />
        </mxCell>
        <mxCell id="ILp8-n_kelNuU-kEh7t1-22" value="" style="group" parent="ILp8-n_kelNuU-kEh7t1-16" vertex="1" connectable="0">
          <mxGeometry y="20" width="190" height="130" as="geometry" />
        </mxCell>
        <mxCell id="ILp8-n_kelNuU-kEh7t1-23" value="" style="ellipse;whiteSpace=wrap;html=1;aspect=fixed;fillColor=#FFFFFF;" parent="ILp8-n_kelNuU-kEh7t1-22" vertex="1">
          <mxGeometry y="10" width="10" height="10" as="geometry" />
        </mxCell>
        <mxCell id="ILp8-n_kelNuU-kEh7t1-24" value="&lt;span style=&quot;text-wrap-mode: wrap;&quot;&gt;Numero&lt;/span&gt;" style="text;html=1;align=left;verticalAlign=middle;resizable=0;points=[];autosize=1;strokeColor=none;fillColor=none;" parent="ILp8-n_kelNuU-kEh7t1-22" vertex="1">
          <mxGeometry x="20" width="70" height="30" as="geometry" />
        </mxCell>
        <mxCell id="ILp8-n_kelNuU-kEh7t1-25" value="" style="group" parent="ILp8-n_kelNuU-kEh7t1-22" vertex="1" connectable="0">
          <mxGeometry y="20" width="190" height="110" as="geometry" />
        </mxCell>
        <mxCell id="ILp8-n_kelNuU-kEh7t1-26" value="" style="ellipse;whiteSpace=wrap;html=1;aspect=fixed;fillColor=#FFFFFF;" parent="ILp8-n_kelNuU-kEh7t1-25" vertex="1">
          <mxGeometry y="10" width="10" height="10" as="geometry" />
        </mxCell>
        <mxCell id="ILp8-n_kelNuU-kEh7t1-27" value="&lt;span style=&quot;text-wrap-mode: wrap;&quot;&gt;CodigoDaLocalidade&lt;/span&gt;" style="text;html=1;align=left;verticalAlign=middle;resizable=0;points=[];autosize=1;strokeColor=none;fillColor=none;" parent="ILp8-n_kelNuU-kEh7t1-25" vertex="1">
          <mxGeometry x="20" width="130" height="30" as="geometry" />
        </mxCell>
        <mxCell id="ILp8-n_kelNuU-kEh7t1-28" value="" style="group" parent="ILp8-n_kelNuU-kEh7t1-25" vertex="1" connectable="0">
          <mxGeometry y="20" width="190" height="90" as="geometry" />
        </mxCell>
        <mxCell id="ILp8-n_kelNuU-kEh7t1-29" value="" style="ellipse;whiteSpace=wrap;html=1;aspect=fixed;fillColor=#FFFFFF;" parent="ILp8-n_kelNuU-kEh7t1-28" vertex="1">
          <mxGeometry y="10" width="10" height="10" as="geometry" />
        </mxCell>
        <mxCell id="ILp8-n_kelNuU-kEh7t1-30" value="&lt;span style=&quot;text-wrap-mode: wrap;&quot;&gt;Complemento&lt;/span&gt;" style="text;html=1;align=left;verticalAlign=middle;resizable=0;points=[];autosize=1;strokeColor=none;fillColor=none;" parent="ILp8-n_kelNuU-kEh7t1-28" vertex="1">
          <mxGeometry x="20" width="100" height="30" as="geometry" />
        </mxCell>
        <mxCell id="ILp8-n_kelNuU-kEh7t1-31" value="" style="group" parent="ILp8-n_kelNuU-kEh7t1-28" vertex="1" connectable="0">
          <mxGeometry y="20" width="190" height="70" as="geometry" />
        </mxCell>
        <mxCell id="ILp8-n_kelNuU-kEh7t1-32" value="" style="ellipse;whiteSpace=wrap;html=1;aspect=fixed;fillColor=#FFFFFF;" parent="ILp8-n_kelNuU-kEh7t1-31" vertex="1">
          <mxGeometry y="10" width="10" height="10" as="geometry" />
        </mxCell>
        <mxCell id="ILp8-n_kelNuU-kEh7t1-33" value="&lt;span style=&quot;text-wrap-mode: wrap;&quot;&gt;NumeroDoQuarteirao&lt;/span&gt;" style="text;html=1;align=left;verticalAlign=middle;resizable=0;points=[];autosize=1;strokeColor=none;fillColor=none;" parent="ILp8-n_kelNuU-kEh7t1-31" vertex="1">
          <mxGeometry x="20" width="140" height="30" as="geometry" />
        </mxCell>
        <mxCell id="ILp8-n_kelNuU-kEh7t1-40" value="" style="group" parent="ILp8-n_kelNuU-kEh7t1-31" vertex="1" connectable="0">
          <mxGeometry y="20" width="190" height="50" as="geometry" />
        </mxCell>
        <mxCell id="ILp8-n_kelNuU-kEh7t1-41" value="" style="ellipse;whiteSpace=wrap;html=1;aspect=fixed;fillColor=#FFFFFF;" parent="ILp8-n_kelNuU-kEh7t1-40" vertex="1">
          <mxGeometry y="10" width="10" height="10" as="geometry" />
        </mxCell>
        <mxCell id="ILp8-n_kelNuU-kEh7t1-42" value="&lt;span style=&quot;text-wrap-mode: wrap;&quot;&gt;ComplementoDoQuarteirao&lt;/span&gt;" style="text;html=1;align=left;verticalAlign=middle;resizable=0;points=[];autosize=1;strokeColor=none;fillColor=none;" parent="ILp8-n_kelNuU-kEh7t1-40" vertex="1">
          <mxGeometry x="20" width="170" height="30" as="geometry" />
        </mxCell>
        <mxCell id="ILp8-n_kelNuU-kEh7t1-37" value="" style="group" parent="ILp8-n_kelNuU-kEh7t1-40" vertex="1" connectable="0">
          <mxGeometry y="20" width="160" height="30" as="geometry" />
        </mxCell>
        <mxCell id="ILp8-n_kelNuU-kEh7t1-38" value="" style="ellipse;whiteSpace=wrap;html=1;aspect=fixed;fillColor=#FFFFFF;" parent="ILp8-n_kelNuU-kEh7t1-37" vertex="1">
          <mxGeometry y="10" width="10" height="10" as="geometry" />
        </mxCell>
        <mxCell id="ILp8-n_kelNuU-kEh7t1-39" value="&lt;span style=&quot;text-wrap-mode: wrap;&quot;&gt;SituacaoDoImovel&lt;/span&gt;" style="text;html=1;align=left;verticalAlign=middle;resizable=0;points=[];autosize=1;strokeColor=none;fillColor=none;" parent="ILp8-n_kelNuU-kEh7t1-37" vertex="1">
          <mxGeometry x="20" width="120" height="30" as="geometry" />
        </mxCell>
        <mxCell id="-h6WGbTKZ45hAwRw8tWW-1" value="" style="ellipse;whiteSpace=wrap;html=1;aspect=fixed;fillColor=#FFFFFF;" parent="ILp8-n_kelNuU-kEh7t1-19" vertex="1">
          <mxGeometry y="100" width="10" height="10" as="geometry" />
        </mxCell>
        <mxCell id="-h6WGbTKZ45hAwRw8tWW-2" value="&lt;span style=&quot;text-wrap-mode: wrap;&quot;&gt;DataDeRegistro&lt;/span&gt;" style="text;html=1;align=left;verticalAlign=middle;resizable=0;points=[];autosize=1;strokeColor=none;fillColor=none;" parent="ILp8-n_kelNuU-kEh7t1-19" vertex="1">
          <mxGeometry x="20" y="90" width="110" height="30" as="geometry" />
        </mxCell>
        <mxCell id="-h6WGbTKZ45hAwRw8tWW-3" value="" style="ellipse;whiteSpace=wrap;html=1;aspect=fixed;fillColor=#FFFFFF;" parent="ILp8-n_kelNuU-kEh7t1-19" vertex="1">
          <mxGeometry y="120" width="10" height="10" as="geometry" />
        </mxCell>
        <mxCell id="-h6WGbTKZ45hAwRw8tWW-4" value="&lt;span style=&quot;text-wrap-mode: wrap;&quot;&gt;DataDeAtualizaÃ§Ã£o&lt;/span&gt;" style="text;html=1;align=left;verticalAlign=middle;resizable=0;points=[];autosize=1;strokeColor=none;fillColor=none;" parent="ILp8-n_kelNuU-kEh7t1-19" vertex="1">
          <mxGeometry x="20" y="110" width="130" height="30" as="geometry" />
        </mxCell>
        <mxCell id="-h6WGbTKZ45hAwRw8tWW-5" value="" style="ellipse;whiteSpace=wrap;html=1;aspect=fixed;fillColor=#FFFFFF;" parent="ILp8-n_kelNuU-kEh7t1-19" vertex="1">
          <mxGeometry y="140" width="10" height="10" as="geometry" />
        </mxCell>
        <mxCell id="-h6WGbTKZ45hAwRw8tWW-6" value="&lt;span style=&quot;text-wrap-mode: wrap;&quot;&gt;CriadoPor&lt;/span&gt;" style="text;html=1;align=left;verticalAlign=middle;resizable=0;points=[];autosize=1;strokeColor=none;fillColor=none;" parent="ILp8-n_kelNuU-kEh7t1-19" vertex="1">
          <mxGeometry x="20" y="130" width="80" height="30" as="geometry" />
        </mxCell>
        <mxCell id="-h6WGbTKZ45hAwRw8tWW-7" value="" style="ellipse;whiteSpace=wrap;html=1;aspect=fixed;fillColor=#FFFFFF;" parent="ILp8-n_kelNuU-kEh7t1-19" vertex="1">
          <mxGeometry y="160" width="10" height="10" as="geometry" />
        </mxCell>
        <mxCell id="-h6WGbTKZ45hAwRw8tWW-8" value="&lt;span style=&quot;text-wrap-mode: wrap;&quot;&gt;AtualizadoPor&lt;/span&gt;" style="text;html=1;align=left;verticalAlign=middle;resizable=0;points=[];autosize=1;strokeColor=none;fillColor=none;" parent="ILp8-n_kelNuU-kEh7t1-19" vertex="1">
          <mxGeometry x="20" y="150" width="100" height="30" as="geometry" />
        </mxCell>
        <mxCell id="ILp8-n_kelNuU-kEh7t1-43" style="edgeStyle=orthogonalEdgeStyle;rounded=0;orthogonalLoop=1;jettySize=auto;html=1;entryX=1;entryY=0.25;entryDx=0;entryDy=0;endArrow=none;startFill=0;" parent="1" source="ILp8-n_kelNuU-kEh7t1-20" target="ILp8-n_kelNuU-kEh7t1-1" edge="1">
          <mxGeometry relative="1" as="geometry" />
        </mxCell>
        <mxCell id="ILp8-n_kelNuU-kEh7t1-44" style="edgeStyle=orthogonalEdgeStyle;rounded=0;orthogonalLoop=1;jettySize=auto;html=1;entryX=1;entryY=0.5;entryDx=0;entryDy=0;endArrow=none;startFill=0;" parent="1" source="ILp8-n_kelNuU-kEh7t1-9" target="ILp8-n_kelNuU-kEh7t1-1" edge="1">
          <mxGeometry relative="1" as="geometry" />
        </mxCell>
        <mxCell id="ILp8-n_kelNuU-kEh7t1-45" style="edgeStyle=orthogonalEdgeStyle;rounded=0;orthogonalLoop=1;jettySize=auto;html=1;entryX=1;entryY=0.75;entryDx=0;entryDy=0;endArrow=none;startFill=0;" parent="1" source="ILp8-n_kelNuU-kEh7t1-17" target="ILp8-n_kelNuU-kEh7t1-1" edge="1">
          <mxGeometry relative="1" as="geometry" />
        </mxCell>
        <mxCell id="ILp8-n_kelNuU-kEh7t1-46" style="edgeStyle=orthogonalEdgeStyle;rounded=0;orthogonalLoop=1;jettySize=auto;html=1;entryX=0.946;entryY=1;entryDx=0;entryDy=0;entryPerimeter=0;endArrow=none;startFill=0;" parent="1" source="ILp8-n_kelNuU-kEh7t1-23" target="ILp8-n_kelNuU-kEh7t1-1" edge="1">
          <mxGeometry relative="1" as="geometry">
            <mxPoint x="250" y="150" as="targetPoint" />
          </mxGeometry>
        </mxCell>
        <mxCell id="ILp8-n_kelNuU-kEh7t1-47" style="edgeStyle=orthogonalEdgeStyle;rounded=0;orthogonalLoop=1;jettySize=auto;html=1;entryX=0.837;entryY=0.99;entryDx=0;entryDy=0;entryPerimeter=0;endArrow=none;startFill=0;" parent="1" source="ILp8-n_kelNuU-kEh7t1-26" target="ILp8-n_kelNuU-kEh7t1-1" edge="1">
          <mxGeometry relative="1" as="geometry" />
        </mxCell>
        <mxCell id="ILp8-n_kelNuU-kEh7t1-48" style="edgeStyle=orthogonalEdgeStyle;rounded=0;orthogonalLoop=1;jettySize=auto;html=1;entryX=0.75;entryY=1;entryDx=0;entryDy=0;endArrow=none;startFill=0;" parent="1" source="ILp8-n_kelNuU-kEh7t1-29" target="ILp8-n_kelNuU-kEh7t1-1" edge="1">
          <mxGeometry relative="1" as="geometry" />
        </mxCell>
        <mxCell id="ILp8-n_kelNuU-kEh7t1-49" style="edgeStyle=orthogonalEdgeStyle;rounded=0;orthogonalLoop=1;jettySize=auto;html=1;entryX=0.66;entryY=1.001;entryDx=0;entryDy=0;entryPerimeter=0;endArrow=none;startFill=0;" parent="1" source="ILp8-n_kelNuU-kEh7t1-32" target="ILp8-n_kelNuU-kEh7t1-1" edge="1">
          <mxGeometry relative="1" as="geometry" />
        </mxCell>
        <mxCell id="ILp8-n_kelNuU-kEh7t1-50" style="edgeStyle=orthogonalEdgeStyle;rounded=0;orthogonalLoop=1;jettySize=auto;html=1;entryX=0.574;entryY=1.012;entryDx=0;entryDy=0;entryPerimeter=0;endArrow=none;startFill=0;" parent="1" source="ILp8-n_kelNuU-kEh7t1-41" target="ILp8-n_kelNuU-kEh7t1-1" edge="1">
          <mxGeometry relative="1" as="geometry" />
        </mxCell>
        <mxCell id="ILp8-n_kelNuU-kEh7t1-51" style="edgeStyle=orthogonalEdgeStyle;rounded=0;orthogonalLoop=1;jettySize=auto;html=1;entryX=0.5;entryY=1;entryDx=0;entryDy=0;endArrow=none;startFill=0;" parent="1" source="ILp8-n_kelNuU-kEh7t1-38" target="ILp8-n_kelNuU-kEh7t1-1" edge="1">
          <mxGeometry relative="1" as="geometry" />
        </mxCell>
        <mxCell id="ILp8-n_kelNuU-kEh7t1-92" value="&lt;span style=&quot;font-weight: 700;&quot;&gt;Agente&lt;/span&gt;" style="rounded=1;whiteSpace=wrap;html=1;" parent="1" vertex="1">
          <mxGeometry x="570" y="165" width="120" height="60" as="geometry" />
        </mxCell>
        <mxCell id="ILp8-n_kelNuU-kEh7t1-93" value="" style="group" parent="1" vertex="1" connectable="0">
          <mxGeometry x="760" y="120" width="190" height="230" as="geometry" />
        </mxCell>
        <mxCell id="ILp8-n_kelNuU-kEh7t1-94" value="" style="ellipse;whiteSpace=wrap;html=1;aspect=fixed;fillColor=#0000FF;" parent="ILp8-n_kelNuU-kEh7t1-93" vertex="1">
          <mxGeometry y="10" width="10" height="10" as="geometry" />
        </mxCell>
        <mxCell id="ILp8-n_kelNuU-kEh7t1-95" value="&lt;span style=&quot;text-wrap-mode: wrap;&quot;&gt;AgenteId&lt;/span&gt;" style="text;html=1;align=left;verticalAlign=middle;resizable=0;points=[];autosize=1;strokeColor=none;fillColor=none;" parent="ILp8-n_kelNuU-kEh7t1-93" vertex="1">
          <mxGeometry x="20" width="70" height="30" as="geometry" />
        </mxCell>
        <mxCell id="ILp8-n_kelNuU-kEh7t1-96" value="" style="group" parent="ILp8-n_kelNuU-kEh7t1-93" vertex="1" connectable="0">
          <mxGeometry y="20" width="190" height="210" as="geometry" />
        </mxCell>
        <mxCell id="ILp8-n_kelNuU-kEh7t1-97" value="" style="ellipse;whiteSpace=wrap;html=1;aspect=fixed;fillColor=#FFFFFF;" parent="ILp8-n_kelNuU-kEh7t1-96" vertex="1">
          <mxGeometry y="10" width="10" height="10" as="geometry" />
        </mxCell>
        <mxCell id="ILp8-n_kelNuU-kEh7t1-98" value="&lt;span style=&quot;text-wrap-mode: wrap;&quot;&gt;NomeDoAgente&lt;/span&gt;" style="text;html=1;align=left;verticalAlign=middle;resizable=0;points=[];autosize=1;strokeColor=none;fillColor=none;" parent="ILp8-n_kelNuU-kEh7t1-96" vertex="1">
          <mxGeometry x="20" width="110" height="30" as="geometry" />
        </mxCell>
        <mxCell id="ILp8-n_kelNuU-kEh7t1-99" value="" style="group" parent="ILp8-n_kelNuU-kEh7t1-96" vertex="1" connectable="0">
          <mxGeometry y="20" width="190" height="190" as="geometry" />
        </mxCell>
        <mxCell id="ILp8-n_kelNuU-kEh7t1-100" value="" style="ellipse;whiteSpace=wrap;html=1;aspect=fixed;fillColor=#FFFFFF;" parent="ILp8-n_kelNuU-kEh7t1-99" vertex="1">
          <mxGeometry y="10" width="10" height="10" as="geometry" />
        </mxCell>
        <mxCell id="ILp8-n_kelNuU-kEh7t1-101" value="&lt;span style=&quot;text-wrap-mode: wrap;&quot;&gt;Turma&lt;/span&gt;" style="text;html=1;align=left;verticalAlign=middle;resizable=0;points=[];autosize=1;strokeColor=none;fillColor=none;" parent="ILp8-n_kelNuU-kEh7t1-99" vertex="1">
          <mxGeometry x="20" width="60" height="30" as="geometry" />
        </mxCell>
        <mxCell id="ILp8-n_kelNuU-kEh7t1-102" value="" style="group" parent="ILp8-n_kelNuU-kEh7t1-99" vertex="1" connectable="0">
          <mxGeometry y="20" width="190" height="170" as="geometry" />
        </mxCell>
        <mxCell id="ILp8-n_kelNuU-kEh7t1-103" value="" style="ellipse;whiteSpace=wrap;html=1;aspect=fixed;fillColor=#FFFFFF;" parent="ILp8-n_kelNuU-kEh7t1-102" vertex="1">
          <mxGeometry y="10" width="10" height="10" as="geometry" />
        </mxCell>
        <mxCell id="ILp8-n_kelNuU-kEh7t1-104" value="&lt;span style=&quot;text-wrap-mode: wrap;&quot;&gt;Senha&lt;/span&gt;" style="text;html=1;align=left;verticalAlign=middle;resizable=0;points=[];autosize=1;strokeColor=none;fillColor=none;" parent="ILp8-n_kelNuU-kEh7t1-102" vertex="1">
          <mxGeometry x="20" width="60" height="30" as="geometry" />
        </mxCell>
        <mxCell id="ILp8-n_kelNuU-kEh7t1-105" value="" style="group" parent="ILp8-n_kelNuU-kEh7t1-102" vertex="1" connectable="0">
          <mxGeometry y="20" width="190" height="150" as="geometry" />
        </mxCell>
        <mxCell id="ILp8-n_kelNuU-kEh7t1-106" value="" style="ellipse;whiteSpace=wrap;html=1;aspect=fixed;fillColor=#FFFFFF;" parent="ILp8-n_kelNuU-kEh7t1-105" vertex="1">
          <mxGeometry y="10" width="10" height="10" as="geometry" />
        </mxCell>
        <mxCell id="ILp8-n_kelNuU-kEh7t1-107" value="&lt;span style=&quot;text-wrap-mode: wrap;&quot;&gt;Matricula&lt;/span&gt;" style="text;html=1;align=left;verticalAlign=middle;resizable=0;points=[];autosize=1;strokeColor=none;fillColor=none;" parent="ILp8-n_kelNuU-kEh7t1-105" vertex="1">
          <mxGeometry x="20" width="70" height="30" as="geometry" />
        </mxCell>
        <mxCell id="ILp8-n_kelNuU-kEh7t1-108" value="" style="group" parent="ILp8-n_kelNuU-kEh7t1-105" vertex="1" connectable="0">
          <mxGeometry y="20" width="190" height="130" as="geometry" />
        </mxCell>
        <mxCell id="ILp8-n_kelNuU-kEh7t1-109" value="" style="ellipse;whiteSpace=wrap;html=1;aspect=fixed;fillColor=#FFFFFF;" parent="ILp8-n_kelNuU-kEh7t1-108" vertex="1">
          <mxGeometry y="10" width="10" height="10" as="geometry" />
        </mxCell>
        <mxCell id="ILp8-n_kelNuU-kEh7t1-110" value="&lt;span style=&quot;text-wrap-mode: wrap;&quot;&gt;CPF&lt;/span&gt;" style="text;html=1;align=left;verticalAlign=middle;resizable=0;points=[];autosize=1;strokeColor=none;fillColor=none;" parent="ILp8-n_kelNuU-kEh7t1-108" vertex="1">
          <mxGeometry x="20" width="50" height="30" as="geometry" />
        </mxCell>
        <mxCell id="ILp8-n_kelNuU-kEh7t1-111" value="" style="group" parent="ILp8-n_kelNuU-kEh7t1-108" vertex="1" connectable="0">
          <mxGeometry y="20" width="190" height="110" as="geometry" />
        </mxCell>
        <mxCell id="ILp8-n_kelNuU-kEh7t1-112" value="" style="ellipse;whiteSpace=wrap;html=1;aspect=fixed;fillColor=#FFFFFF;" parent="ILp8-n_kelNuU-kEh7t1-111" vertex="1">
          <mxGeometry y="10" width="10" height="10" as="geometry" />
        </mxCell>
        <mxCell id="ILp8-n_kelNuU-kEh7t1-113" value="&lt;span style=&quot;text-wrap-mode: wrap;&quot;&gt;Hierarquia&lt;/span&gt;" style="text;html=1;align=left;verticalAlign=middle;resizable=0;points=[];autosize=1;strokeColor=none;fillColor=none;" parent="ILp8-n_kelNuU-kEh7t1-111" vertex="1">
          <mxGeometry x="20" width="80" height="30" as="geometry" />
        </mxCell>
        <mxCell id="ILp8-n_kelNuU-kEh7t1-114" value="" style="group" parent="ILp8-n_kelNuU-kEh7t1-111" vertex="1" connectable="0">
          <mxGeometry y="20" width="190" height="55" as="geometry" />
        </mxCell>
        <mxCell id="-h6WGbTKZ45hAwRw8tWW-9" value="" style="ellipse;whiteSpace=wrap;html=1;aspect=fixed;fillColor=#FFFFFF;" parent="ILp8-n_kelNuU-kEh7t1-111" vertex="1">
          <mxGeometry y="30" width="10" height="10" as="geometry" />
        </mxCell>
        <mxCell id="-h6WGbTKZ45hAwRw8tWW-10" value="&lt;span style=&quot;text-wrap-mode: wrap;&quot;&gt;DataDeRegistro&lt;/span&gt;" style="text;html=1;align=left;verticalAlign=middle;resizable=0;points=[];autosize=1;strokeColor=none;fillColor=none;" parent="ILp8-n_kelNuU-kEh7t1-111" vertex="1">
          <mxGeometry x="20" y="20" width="110" height="30" as="geometry" />
        </mxCell>
        <mxCell id="-h6WGbTKZ45hAwRw8tWW-11" value="" style="ellipse;whiteSpace=wrap;html=1;aspect=fixed;fillColor=#FFFFFF;" parent="ILp8-n_kelNuU-kEh7t1-111" vertex="1">
          <mxGeometry y="50" width="10" height="10" as="geometry" />
        </mxCell>
        <mxCell id="-h6WGbTKZ45hAwRw8tWW-12" value="&lt;span style=&quot;text-wrap-mode: wrap;&quot;&gt;DataDeAtualizaÃ§Ã£o&lt;/span&gt;" style="text;html=1;align=left;verticalAlign=middle;resizable=0;points=[];autosize=1;strokeColor=none;fillColor=none;" parent="ILp8-n_kelNuU-kEh7t1-111" vertex="1">
          <mxGeometry x="20" y="40" width="130" height="30" as="geometry" />
        </mxCell>
        <mxCell id="-h6WGbTKZ45hAwRw8tWW-13" value="" style="ellipse;whiteSpace=wrap;html=1;aspect=fixed;fillColor=#FFFFFF;" parent="ILp8-n_kelNuU-kEh7t1-111" vertex="1">
          <mxGeometry y="70" width="10" height="10" as="geometry" />
        </mxCell>
        <mxCell id="-h6WGbTKZ45hAwRw8tWW-14" value="&lt;span style=&quot;text-wrap-mode: wrap;&quot;&gt;CriadoPor&lt;/span&gt;" style="text;html=1;align=left;verticalAlign=middle;resizable=0;points=[];autosize=1;strokeColor=none;fillColor=none;" parent="ILp8-n_kelNuU-kEh7t1-111" vertex="1">
          <mxGeometry x="20" y="60" width="80" height="30" as="geometry" />
        </mxCell>
        <mxCell id="-h6WGbTKZ45hAwRw8tWW-15" value="" style="ellipse;whiteSpace=wrap;html=1;aspect=fixed;fillColor=#FFFFFF;" parent="ILp8-n_kelNuU-kEh7t1-111" vertex="1">
          <mxGeometry y="90" width="10" height="10" as="geometry" />
        </mxCell>
        <mxCell id="-h6WGbTKZ45hAwRw8tWW-16" value="&lt;span style=&quot;text-wrap-mode: wrap;&quot;&gt;AtualizadoPor&lt;/span&gt;" style="text;html=1;align=left;verticalAlign=middle;resizable=0;points=[];autosize=1;strokeColor=none;fillColor=none;" parent="ILp8-n_kelNuU-kEh7t1-111" vertex="1">
          <mxGeometry x="20" y="80" width="100" height="30" as="geometry" />
        </mxCell>
        <mxCell id="ILp8-n_kelNuU-kEh7t1-120" style="edgeStyle=orthogonalEdgeStyle;rounded=0;orthogonalLoop=1;jettySize=auto;html=1;entryX=1;entryY=0.25;entryDx=0;entryDy=0;endArrow=none;startFill=0;" parent="1" source="ILp8-n_kelNuU-kEh7t1-94" target="ILp8-n_kelNuU-kEh7t1-92" edge="1">
          <mxGeometry relative="1" as="geometry" />
        </mxCell>
        <mxCell id="ILp8-n_kelNuU-kEh7t1-121" style="edgeStyle=orthogonalEdgeStyle;rounded=0;orthogonalLoop=1;jettySize=auto;html=1;entryX=1;entryY=0.5;entryDx=0;entryDy=0;endArrow=none;startFill=0;" parent="1" source="ILp8-n_kelNuU-kEh7t1-97" target="ILp8-n_kelNuU-kEh7t1-92" edge="1">
          <mxGeometry relative="1" as="geometry" />
        </mxCell>
        <mxCell id="ILp8-n_kelNuU-kEh7t1-122" style="edgeStyle=orthogonalEdgeStyle;rounded=0;orthogonalLoop=1;jettySize=auto;html=1;entryX=1;entryY=0.75;entryDx=0;entryDy=0;endArrow=none;startFill=0;" parent="1" source="ILp8-n_kelNuU-kEh7t1-100" target="ILp8-n_kelNuU-kEh7t1-92" edge="1">
          <mxGeometry relative="1" as="geometry" />
        </mxCell>
        <mxCell id="ILp8-n_kelNuU-kEh7t1-123" style="edgeStyle=orthogonalEdgeStyle;rounded=0;orthogonalLoop=1;jettySize=auto;html=1;entryX=0.946;entryY=1;entryDx=0;entryDy=0;entryPerimeter=0;endArrow=none;startFill=0;" parent="1" source="ILp8-n_kelNuU-kEh7t1-103" target="ILp8-n_kelNuU-kEh7t1-92" edge="1">
          <mxGeometry relative="1" as="geometry">
            <mxPoint x="740" y="240" as="targetPoint" />
          </mxGeometry>
        </mxCell>
        <mxCell id="ILp8-n_kelNuU-kEh7t1-124" style="edgeStyle=orthogonalEdgeStyle;rounded=0;orthogonalLoop=1;jettySize=auto;html=1;entryX=0.837;entryY=0.99;entryDx=0;entryDy=0;entryPerimeter=0;endArrow=none;startFill=0;" parent="1" source="ILp8-n_kelNuU-kEh7t1-106" target="ILp8-n_kelNuU-kEh7t1-92" edge="1">
          <mxGeometry relative="1" as="geometry" />
        </mxCell>
        <mxCell id="ILp8-n_kelNuU-kEh7t1-125" style="edgeStyle=orthogonalEdgeStyle;rounded=0;orthogonalLoop=1;jettySize=auto;html=1;entryX=0.75;entryY=1;entryDx=0;entryDy=0;endArrow=none;startFill=0;" parent="1" source="ILp8-n_kelNuU-kEh7t1-109" target="ILp8-n_kelNuU-kEh7t1-92" edge="1">
          <mxGeometry relative="1" as="geometry" />
        </mxCell>
        <mxCell id="ILp8-n_kelNuU-kEh7t1-126" style="edgeStyle=orthogonalEdgeStyle;rounded=0;orthogonalLoop=1;jettySize=auto;html=1;entryX=0.66;entryY=1.001;entryDx=0;entryDy=0;entryPerimeter=0;endArrow=none;startFill=0;" parent="1" source="ILp8-n_kelNuU-kEh7t1-112" target="ILp8-n_kelNuU-kEh7t1-92" edge="1">
          <mxGeometry relative="1" as="geometry" />
        </mxCell>
        <mxCell id="ILp8-n_kelNuU-kEh7t1-129" value="&lt;span style=&quot;font-weight: 700;&quot;&gt;Pesquisa&lt;/span&gt;" style="rounded=1;whiteSpace=wrap;html=1;" parent="1" vertex="1">
          <mxGeometry x="80" y="405" width="120" height="60" as="geometry" />
        </mxCell>
        <mxCell id="ILp8-n_kelNuU-kEh7t1-130" value="" style="ellipse;whiteSpace=wrap;html=1;aspect=fixed;fillColor=#0000FF;" parent="1" vertex="1">
          <mxGeometry x="270" y="370" width="10" height="10" as="geometry" />
        </mxCell>
        <mxCell id="ILp8-n_kelNuU-kEh7t1-131" value="&lt;span style=&quot;text-wrap-mode: wrap;&quot;&gt;PesquisaId&lt;/span&gt;" style="text;html=1;align=left;verticalAlign=middle;resizable=0;points=[];autosize=1;strokeColor=none;fillColor=none;" parent="1" vertex="1">
          <mxGeometry x="290" y="360" width="80" height="30" as="geometry" />
        </mxCell>
        <mxCell id="ILp8-n_kelNuU-kEh7t1-132" value="" style="ellipse;whiteSpace=wrap;html=1;aspect=fixed;fillColor=#FFFFFF;" parent="1" vertex="1">
          <mxGeometry x="270" y="390" width="10" height="10" as="geometry" />
        </mxCell>
        <mxCell id="ILp8-n_kelNuU-kEh7t1-133" value="&lt;span style=&quot;text-wrap-mode: wrap;&quot;&gt;ResidenciaId&lt;/span&gt;" style="text;html=1;align=left;verticalAlign=middle;resizable=0;points=[];autosize=1;strokeColor=none;fillColor=none;" parent="1" vertex="1">
          <mxGeometry x="290" y="380" width="90" height="30" as="geometry" />
        </mxCell>
        <mxCell id="ILp8-n_kelNuU-kEh7t1-134" value="" style="ellipse;whiteSpace=wrap;html=1;aspect=fixed;fillColor=#FFFFFF;" parent="1" vertex="1">
          <mxGeometry x="270" y="410" width="10" height="10" as="geometry" />
        </mxCell>
        <mxCell id="ILp8-n_kelNuU-kEh7t1-135" value="&lt;span style=&quot;text-wrap-mode: wrap;&quot;&gt;MatriculaDoAgente&lt;/span&gt;" style="text;html=1;align=left;verticalAlign=middle;resizable=0;points=[];autosize=1;strokeColor=none;fillColor=none;" parent="1" vertex="1">
          <mxGeometry x="290" y="400" width="130" height="30" as="geometry" />
        </mxCell>
        <mxCell id="ILp8-n_kelNuU-kEh7t1-136" value="" style="ellipse;whiteSpace=wrap;html=1;aspect=fixed;fillColor=#FFFFFF;" parent="1" vertex="1">
          <mxGeometry x="270" y="430" width="10" height="10" as="geometry" />
        </mxCell>
        <mxCell id="ILp8-n_kelNuU-kEh7t1-137" value="&lt;span style=&quot;text-wrap-mode: wrap;&quot;&gt;DataDaVisita&lt;/span&gt;" style="text;html=1;align=left;verticalAlign=middle;resizable=0;points=[];autosize=1;strokeColor=none;fillColor=none;" parent="1" vertex="1">
          <mxGeometry x="290" y="420" width="90" height="30" as="geometry" />
        </mxCell>
        <mxCell id="ILp8-n_kelNuU-kEh7t1-138" value="" style="ellipse;whiteSpace=wrap;html=1;aspect=fixed;fillColor=#FFFFFF;" parent="1" vertex="1">
          <mxGeometry x="270" y="450" width="10" height="10" as="geometry" />
        </mxCell>
        <mxCell id="ILp8-n_kelNuU-kEh7t1-139" value="&lt;span style=&quot;text-wrap-mode: wrap;&quot;&gt;Pendencia&lt;/span&gt;" style="text;html=1;align=left;verticalAlign=middle;resizable=0;points=[];autosize=1;strokeColor=none;fillColor=none;" parent="1" vertex="1">
          <mxGeometry x="290" y="440" width="80" height="30" as="geometry" />
        </mxCell>
        <mxCell id="ILp8-n_kelNuU-kEh7t1-140" value="" style="ellipse;whiteSpace=wrap;html=1;aspect=fixed;fillColor=#FFFFFF;" parent="1" vertex="1">
          <mxGeometry x="270" y="470" width="10" height="10" as="geometry" />
        </mxCell>
        <mxCell id="ILp8-n_kelNuU-kEh7t1-141" value="&lt;span style=&quot;text-wrap-mode: wrap;&quot;&gt;NomeDoMorador&lt;/span&gt;" style="text;html=1;align=left;verticalAlign=middle;resizable=0;points=[];autosize=1;strokeColor=none;fillColor=none;" parent="1" vertex="1">
          <mxGeometry x="290" y="460" width="120" height="30" as="geometry" />
        </mxCell>
        <mxCell id="ILp8-n_kelNuU-kEh7t1-142" value="" style="ellipse;whiteSpace=wrap;html=1;aspect=fixed;fillColor=#FFFFFF;" parent="1" vertex="1">
          <mxGeometry x="270" y="490" width="10" height="10" as="geometry" />
        </mxCell>
        <mxCell id="ILp8-n_kelNuU-kEh7t1-143" value="&lt;span style=&quot;text-wrap-mode: wrap;&quot;&gt;NumeroDeHabitantes&lt;/span&gt;" style="text;html=1;align=left;verticalAlign=middle;resizable=0;points=[];autosize=1;strokeColor=none;fillColor=none;" parent="1" vertex="1">
          <mxGeometry x="290" y="480" width="140" height="30" as="geometry" />
        </mxCell>
        <mxCell id="ILp8-n_kelNuU-kEh7t1-145" value="" style="group" parent="1" vertex="1" connectable="0">
          <mxGeometry x="270" y="520" width="160" height="50" as="geometry" />
        </mxCell>
        <mxCell id="ILp8-n_kelNuU-kEh7t1-146" value="" style="ellipse;whiteSpace=wrap;html=1;aspect=fixed;fillColor=#FFFFFF;" parent="ILp8-n_kelNuU-kEh7t1-145" vertex="1">
          <mxGeometry y="10" width="10" height="10" as="geometry" />
        </mxCell>
        <mxCell id="ILp8-n_kelNuU-kEh7t1-147" value="&lt;span style=&quot;text-wrap-mode: wrap;&quot;&gt;OutraParede&lt;/span&gt;" style="text;html=1;align=left;verticalAlign=middle;resizable=0;points=[];autosize=1;strokeColor=none;fillColor=none;" parent="ILp8-n_kelNuU-kEh7t1-145" vertex="1">
          <mxGeometry x="20" width="90" height="30" as="geometry" />
        </mxCell>
        <mxCell id="ILp8-n_kelNuU-kEh7t1-159" value="" style="group" parent="ILp8-n_kelNuU-kEh7t1-145" vertex="1" connectable="0">
          <mxGeometry y="20" width="160" height="30" as="geometry" />
        </mxCell>
        <mxCell id="ILp8-n_kelNuU-kEh7t1-160" value="" style="ellipse;whiteSpace=wrap;html=1;aspect=fixed;fillColor=#FFFFFF;" parent="ILp8-n_kelNuU-kEh7t1-159" vertex="1">
          <mxGeometry y="10" width="10" height="10" as="geometry" />
        </mxCell>
        <mxCell id="ILp8-n_kelNuU-kEh7t1-161" value="&lt;span style=&quot;text-wrap-mode: wrap;&quot;&gt;TipoDeTeto&lt;/span&gt;" style="text;html=1;align=left;verticalAlign=middle;resizable=0;points=[];autosize=1;strokeColor=none;fillColor=none;" parent="ILp8-n_kelNuU-kEh7t1-159" vertex="1">
          <mxGeometry x="20" width="80" height="30" as="geometry" />
        </mxCell>
        <mxCell id="ILp8-n_kelNuU-kEh7t1-148" style="edgeStyle=orthogonalEdgeStyle;rounded=0;orthogonalLoop=1;jettySize=auto;html=1;entryX=1;entryY=0.25;entryDx=0;entryDy=0;endArrow=none;startFill=0;" parent="1" source="ILp8-n_kelNuU-kEh7t1-130" target="ILp8-n_kelNuU-kEh7t1-129" edge="1">
          <mxGeometry relative="1" as="geometry" />
        </mxCell>
        <mxCell id="ILp8-n_kelNuU-kEh7t1-149" style="edgeStyle=orthogonalEdgeStyle;rounded=0;orthogonalLoop=1;jettySize=auto;html=1;entryX=1;entryY=0.5;entryDx=0;entryDy=0;endArrow=none;startFill=0;" parent="1" source="ILp8-n_kelNuU-kEh7t1-132" target="ILp8-n_kelNuU-kEh7t1-129" edge="1">
          <mxGeometry relative="1" as="geometry" />
        </mxCell>
        <mxCell id="ILp8-n_kelNuU-kEh7t1-150" style="edgeStyle=orthogonalEdgeStyle;rounded=0;orthogonalLoop=1;jettySize=auto;html=1;entryX=1;entryY=0.75;entryDx=0;entryDy=0;endArrow=none;startFill=0;" parent="1" source="ILp8-n_kelNuU-kEh7t1-134" target="ILp8-n_kelNuU-kEh7t1-129" edge="1">
          <mxGeometry relative="1" as="geometry" />
        </mxCell>
        <mxCell id="ILp8-n_kelNuU-kEh7t1-151" style="edgeStyle=orthogonalEdgeStyle;rounded=0;orthogonalLoop=1;jettySize=auto;html=1;entryX=0.946;entryY=1;entryDx=0;entryDy=0;entryPerimeter=0;endArrow=none;startFill=0;" parent="1" source="ILp8-n_kelNuU-kEh7t1-136" target="ILp8-n_kelNuU-kEh7t1-129" edge="1">
          <mxGeometry relative="1" as="geometry">
            <mxPoint x="250" y="480" as="targetPoint" />
          </mxGeometry>
        </mxCell>
        <mxCell id="ILp8-n_kelNuU-kEh7t1-152" style="edgeStyle=orthogonalEdgeStyle;rounded=0;orthogonalLoop=1;jettySize=auto;html=1;entryX=0.837;entryY=0.99;entryDx=0;entryDy=0;entryPerimeter=0;endArrow=none;startFill=0;" parent="1" source="ILp8-n_kelNuU-kEh7t1-138" target="ILp8-n_kelNuU-kEh7t1-129" edge="1">
          <mxGeometry relative="1" as="geometry" />
        </mxCell>
        <mxCell id="ILp8-n_kelNuU-kEh7t1-153" style="edgeStyle=orthogonalEdgeStyle;rounded=0;orthogonalLoop=1;jettySize=auto;html=1;entryX=0.75;entryY=1;entryDx=0;entryDy=0;endArrow=none;startFill=0;" parent="1" source="ILp8-n_kelNuU-kEh7t1-140" target="ILp8-n_kelNuU-kEh7t1-129" edge="1">
          <mxGeometry relative="1" as="geometry" />
        </mxCell>
        <mxCell id="ILp8-n_kelNuU-kEh7t1-154" style="edgeStyle=orthogonalEdgeStyle;rounded=0;orthogonalLoop=1;jettySize=auto;html=1;entryX=0.66;entryY=1.001;entryDx=0;entryDy=0;entryPerimeter=0;endArrow=none;startFill=0;" parent="1" source="ILp8-n_kelNuU-kEh7t1-142" target="ILp8-n_kelNuU-kEh7t1-129" edge="1">
          <mxGeometry relative="1" as="geometry" />
        </mxCell>
        <mxCell id="ILp8-n_kelNuU-kEh7t1-155" style="edgeStyle=orthogonalEdgeStyle;rounded=0;orthogonalLoop=1;jettySize=auto;html=1;entryX=0.574;entryY=1.012;entryDx=0;entryDy=0;entryPerimeter=0;endArrow=none;startFill=0;" parent="1" source="ILp8-n_kelNuU-kEh7t1-144" target="ILp8-n_kelNuU-kEh7t1-129" edge="1">
          <mxGeometry relative="1" as="geometry" />
        </mxCell>
        <mxCell id="ILp8-n_kelNuU-kEh7t1-156" style="edgeStyle=orthogonalEdgeStyle;rounded=0;orthogonalLoop=1;jettySize=auto;html=1;entryX=0.5;entryY=1;entryDx=0;entryDy=0;endArrow=none;startFill=0;" parent="1" source="ILp8-n_kelNuU-kEh7t1-146" target="ILp8-n_kelNuU-kEh7t1-129" edge="1">
          <mxGeometry relative="1" as="geometry" />
        </mxCell>
        <mxCell id="ILp8-n_kelNuU-kEh7t1-158" value="" style="group" parent="1" vertex="1" connectable="0">
          <mxGeometry x="270" y="500" width="160" height="30" as="geometry" />
        </mxCell>
        <mxCell id="ILp8-n_kelNuU-kEh7t1-144" value="" style="ellipse;whiteSpace=wrap;html=1;aspect=fixed;fillColor=#FFFFFF;" parent="ILp8-n_kelNuU-kEh7t1-158" vertex="1">
          <mxGeometry y="10" width="10" height="10" as="geometry" />
        </mxCell>
        <mxCell id="ILp8-n_kelNuU-kEh7t1-157" value="&lt;span style=&quot;text-wrap-mode: wrap;&quot;&gt;TipoDeParede&lt;/span&gt;" style="text;html=1;align=left;verticalAlign=middle;resizable=0;points=[];autosize=1;strokeColor=none;fillColor=none;" parent="ILp8-n_kelNuU-kEh7t1-158" vertex="1">
          <mxGeometry x="20" width="100" height="30" as="geometry" />
        </mxCell>
        <mxCell id="ILp8-n_kelNuU-kEh7t1-168" value="" style="group" parent="1" vertex="1" connectable="0">
          <mxGeometry x="270" y="560" width="160" height="50" as="geometry" />
        </mxCell>
        <mxCell id="ILp8-n_kelNuU-kEh7t1-169" value="" style="ellipse;whiteSpace=wrap;html=1;aspect=fixed;fillColor=#FFFFFF;" parent="ILp8-n_kelNuU-kEh7t1-168" vertex="1">
          <mxGeometry y="10" width="10" height="10" as="geometry" />
        </mxCell>
        <mxCell id="ILp8-n_kelNuU-kEh7t1-170" value="&lt;span style=&quot;text-wrap-mode: wrap;&quot;&gt;OutroTeto&lt;/span&gt;" style="text;html=1;align=left;verticalAlign=middle;resizable=0;points=[];autosize=1;strokeColor=none;fillColor=none;" parent="ILp8-n_kelNuU-kEh7t1-168" vertex="1">
          <mxGeometry x="20" width="80" height="30" as="geometry" />
        </mxCell>
        <mxCell id="ILp8-n_kelNuU-kEh7t1-171" value="" style="group" parent="ILp8-n_kelNuU-kEh7t1-168" vertex="1" connectable="0">
          <mxGeometry y="20" width="160" height="30" as="geometry" />
        </mxCell>
        <mxCell id="ILp8-n_kelNuU-kEh7t1-172" value="" style="ellipse;whiteSpace=wrap;html=1;aspect=fixed;fillColor=#FFFFFF;" parent="ILp8-n_kelNuU-kEh7t1-171" vertex="1">
          <mxGeometry y="10" width="10" height="10" as="geometry" />
        </mxCell>
        <mxCell id="ILp8-n_kelNuU-kEh7t1-173" value="&lt;span style=&quot;text-wrap-mode: wrap;&quot;&gt;CapturaIntra&lt;/span&gt;" style="text;html=1;align=left;verticalAlign=middle;resizable=0;points=[];autosize=1;strokeColor=none;fillColor=none;" parent="ILp8-n_kelNuU-kEh7t1-171" vertex="1">
          <mxGeometry x="20" width="90" height="30" as="geometry" />
        </mxCell>
        <mxCell id="ILp8-n_kelNuU-kEh7t1-174" value="" style="group" parent="1" vertex="1" connectable="0">
          <mxGeometry x="270" y="600" width="160" height="50" as="geometry" />
        </mxCell>
        <mxCell id="ILp8-n_kelNuU-kEh7t1-175" value="" style="ellipse;whiteSpace=wrap;html=1;aspect=fixed;fillColor=#FFFFFF;" parent="ILp8-n_kelNuU-kEh7t1-174" vertex="1">
          <mxGeometry y="10" width="10" height="10" as="geometry" />
        </mxCell>
        <mxCell id="ILp8-n_kelNuU-kEh7t1-176" value="&lt;span style=&quot;text-wrap-mode: wrap;&quot;&gt;CapturaPeri&lt;/span&gt;" style="text;html=1;align=left;verticalAlign=middle;resizable=0;points=[];autosize=1;strokeColor=none;fillColor=none;" parent="ILp8-n_kelNuU-kEh7t1-174" vertex="1">
          <mxGeometry x="20" width="90" height="30" as="geometry" />
        </mxCell>
        <mxCell id="ILp8-n_kelNuU-kEh7t1-177" value="" style="group" parent="ILp8-n_kelNuU-kEh7t1-174" vertex="1" connectable="0">
          <mxGeometry y="20" width="160" height="30" as="geometry" />
        </mxCell>
        <mxCell id="ILp8-n_kelNuU-kEh7t1-178" value="" style="ellipse;whiteSpace=wrap;html=1;aspect=fixed;fillColor=#FFFFFF;" parent="ILp8-n_kelNuU-kEh7t1-177" vertex="1">
          <mxGeometry y="10" width="10" height="10" as="geometry" />
        </mxCell>
        <mxCell id="ILp8-n_kelNuU-kEh7t1-179" value="&lt;span style=&quot;text-wrap-mode: wrap;&quot;&gt;AnexosPositivos&lt;/span&gt;" style="text;html=1;align=left;verticalAlign=middle;resizable=0;points=[];autosize=1;strokeColor=none;fillColor=none;" parent="ILp8-n_kelNuU-kEh7t1-177" vertex="1">
          <mxGeometry x="20" width="110" height="30" as="geometry" />
        </mxCell>
        <mxCell id="ILp8-n_kelNuU-kEh7t1-180" value="" style="group" parent="1" vertex="1" connectable="0">
          <mxGeometry x="270" y="640" width="160" height="50" as="geometry" />
        </mxCell>
        <mxCell id="ILp8-n_kelNuU-kEh7t1-181" value="" style="ellipse;whiteSpace=wrap;html=1;aspect=fixed;fillColor=#FFFFFF;" parent="ILp8-n_kelNuU-kEh7t1-180" vertex="1">
          <mxGeometry y="10" width="10" height="10" as="geometry" />
        </mxCell>
        <mxCell id="ILp8-n_kelNuU-kEh7t1-182" value="&lt;span style=&quot;text-wrap-mode: wrap;&quot;&gt;AnexosNegativos&lt;/span&gt;" style="text;html=1;align=left;verticalAlign=middle;resizable=0;points=[];autosize=1;strokeColor=none;fillColor=none;" parent="ILp8-n_kelNuU-kEh7t1-180" vertex="1">
          <mxGeometry x="20" width="120" height="30" as="geometry" />
        </mxCell>
        <mxCell id="ILp8-n_kelNuU-kEh7t1-183" value="" style="group" parent="ILp8-n_kelNuU-kEh7t1-180" vertex="1" connectable="0">
          <mxGeometry y="20" width="160" height="30" as="geometry" />
        </mxCell>
        <mxCell id="ILp8-n_kelNuU-kEh7t1-184" value="" style="ellipse;whiteSpace=wrap;html=1;aspect=fixed;fillColor=#FFFFFF;" parent="ILp8-n_kelNuU-kEh7t1-183" vertex="1">
          <mxGeometry y="10" width="10" height="10" as="geometry" />
        </mxCell>
        <mxCell id="ILp8-n_kelNuU-kEh7t1-185" value="&lt;span style=&quot;text-wrap-mode: wrap;&quot;&gt;NumeroDeGatos&lt;/span&gt;" style="text;html=1;align=left;verticalAlign=middle;resizable=0;points=[];autosize=1;strokeColor=none;fillColor=none;" parent="ILp8-n_kelNuU-kEh7t1-183" vertex="1">
          <mxGeometry x="20" width="110" height="30" as="geometry" />
        </mxCell>
        <mxCell id="ILp8-n_kelNuU-kEh7t1-186" value="" style="group" parent="1" vertex="1" connectable="0">
          <mxGeometry x="270" y="680" width="160" height="110" as="geometry" />
        </mxCell>
        <mxCell id="ILp8-n_kelNuU-kEh7t1-187" value="" style="ellipse;whiteSpace=wrap;html=1;aspect=fixed;fillColor=#FFFFFF;" parent="ILp8-n_kelNuU-kEh7t1-186" vertex="1">
          <mxGeometry y="10" width="10" height="10" as="geometry" />
        </mxCell>
        <mxCell id="ILp8-n_kelNuU-kEh7t1-188" value="&lt;span style=&quot;text-wrap-mode: wrap;&quot;&gt;NumeroDeCachorros&lt;/span&gt;" style="text;html=1;align=left;verticalAlign=middle;resizable=0;points=[];autosize=1;strokeColor=none;fillColor=none;" parent="ILp8-n_kelNuU-kEh7t1-186" vertex="1">
          <mxGeometry x="20" width="140" height="30" as="geometry" />
        </mxCell>
        <mxCell id="-h6WGbTKZ45hAwRw8tWW-49" value="" style="ellipse;whiteSpace=wrap;html=1;aspect=fixed;fillColor=#FFFFFF;" parent="ILp8-n_kelNuU-kEh7t1-186" vertex="1">
          <mxGeometry y="30" width="10" height="10" as="geometry" />
        </mxCell>
        <mxCell id="-h6WGbTKZ45hAwRw8tWW-50" value="&lt;span style=&quot;text-wrap-mode: wrap;&quot;&gt;DataDeRegistro&lt;/span&gt;" style="text;html=1;align=left;verticalAlign=middle;resizable=0;points=[];autosize=1;strokeColor=none;fillColor=none;" parent="ILp8-n_kelNuU-kEh7t1-186" vertex="1">
          <mxGeometry x="20" y="20" width="110" height="30" as="geometry" />
        </mxCell>
        <mxCell id="-h6WGbTKZ45hAwRw8tWW-51" value="" style="ellipse;whiteSpace=wrap;html=1;aspect=fixed;fillColor=#FFFFFF;" parent="ILp8-n_kelNuU-kEh7t1-186" vertex="1">
          <mxGeometry y="50" width="10" height="10" as="geometry" />
        </mxCell>
        <mxCell id="-h6WGbTKZ45hAwRw8tWW-52" value="&lt;span style=&quot;text-wrap-mode: wrap;&quot;&gt;DataDeAtualizaÃ§Ã£o&lt;/span&gt;" style="text;html=1;align=left;verticalAlign=middle;resizable=0;points=[];autosize=1;strokeColor=none;fillColor=none;" parent="ILp8-n_kelNuU-kEh7t1-186" vertex="1">
          <mxGeometry x="20" y="40" width="130" height="30" as="geometry" />
        </mxCell>
        <mxCell id="-h6WGbTKZ45hAwRw8tWW-53" value="" style="ellipse;whiteSpace=wrap;html=1;aspect=fixed;fillColor=#FFFFFF;" parent="ILp8-n_kelNuU-kEh7t1-186" vertex="1">
          <mxGeometry y="70" width="10" height="10" as="geometry" />
        </mxCell>
        <mxCell id="-h6WGbTKZ45hAwRw8tWW-54" value="&lt;span style=&quot;text-wrap-mode: wrap;&quot;&gt;CriadoPor&lt;/span&gt;" style="text;html=1;align=left;verticalAlign=middle;resizable=0;points=[];autosize=1;strokeColor=none;fillColor=none;" parent="ILp8-n_kelNuU-kEh7t1-186" vertex="1">
          <mxGeometry x="20" y="60" width="80" height="30" as="geometry" />
        </mxCell>
        <mxCell id="-h6WGbTKZ45hAwRw8tWW-55" value="" style="ellipse;whiteSpace=wrap;html=1;aspect=fixed;fillColor=#FFFFFF;" parent="ILp8-n_kelNuU-kEh7t1-186" vertex="1">
          <mxGeometry y="90" width="10" height="10" as="geometry" />
        </mxCell>
        <mxCell id="-h6WGbTKZ45hAwRw8tWW-56" value="&lt;span style=&quot;text-wrap-mode: wrap;&quot;&gt;AtualizadoPor&lt;/span&gt;" style="text;html=1;align=left;verticalAlign=middle;resizable=0;points=[];autosize=1;strokeColor=none;fillColor=none;" parent="ILp8-n_kelNuU-kEh7t1-186" vertex="1">
          <mxGeometry x="20" y="80" width="100" height="30" as="geometry" />
        </mxCell>
        <mxCell id="ILp8-n_kelNuU-kEh7t1-189" style="edgeStyle=orthogonalEdgeStyle;rounded=0;orthogonalLoop=1;jettySize=auto;html=1;entryX=0.393;entryY=0.991;entryDx=0;entryDy=0;entryPerimeter=0;endArrow=none;startFill=0;" parent="1" source="ILp8-n_kelNuU-kEh7t1-160" target="ILp8-n_kelNuU-kEh7t1-129" edge="1">
          <mxGeometry relative="1" as="geometry" />
        </mxCell>
        <mxCell id="ILp8-n_kelNuU-kEh7t1-190" style="edgeStyle=orthogonalEdgeStyle;rounded=0;orthogonalLoop=1;jettySize=auto;html=1;entryX=0.303;entryY=0.991;entryDx=0;entryDy=0;entryPerimeter=0;endArrow=none;startFill=0;" parent="1" source="ILp8-n_kelNuU-kEh7t1-169" target="ILp8-n_kelNuU-kEh7t1-129" edge="1">
          <mxGeometry relative="1" as="geometry" />
        </mxCell>
        <mxCell id="ILp8-n_kelNuU-kEh7t1-191" style="edgeStyle=orthogonalEdgeStyle;rounded=0;orthogonalLoop=1;jettySize=auto;html=1;entryX=0.213;entryY=0.991;entryDx=0;entryDy=0;entryPerimeter=0;endArrow=none;startFill=0;" parent="1" source="ILp8-n_kelNuU-kEh7t1-172" target="ILp8-n_kelNuU-kEh7t1-129" edge="1">
          <mxGeometry relative="1" as="geometry" />
        </mxCell>
        <mxCell id="ILp8-n_kelNuU-kEh7t1-192" style="edgeStyle=orthogonalEdgeStyle;rounded=0;orthogonalLoop=1;jettySize=auto;html=1;entryX=0.123;entryY=0.991;entryDx=0;entryDy=0;entryPerimeter=0;endArrow=none;startFill=0;" parent="1" source="ILp8-n_kelNuU-kEh7t1-175" target="ILp8-n_kelNuU-kEh7t1-129" edge="1">
          <mxGeometry relative="1" as="geometry" />
        </mxCell>
        <mxCell id="ILp8-n_kelNuU-kEh7t1-193" style="edgeStyle=orthogonalEdgeStyle;rounded=0;orthogonalLoop=1;jettySize=auto;html=1;entryX=0;entryY=0.75;entryDx=0;entryDy=0;endArrow=none;startFill=0;" parent="1" source="ILp8-n_kelNuU-kEh7t1-178" target="ILp8-n_kelNuU-kEh7t1-129" edge="1">
          <mxGeometry relative="1" as="geometry" />
        </mxCell>
        <mxCell id="ILp8-n_kelNuU-kEh7t1-194" style="edgeStyle=orthogonalEdgeStyle;rounded=0;orthogonalLoop=1;jettySize=auto;html=1;entryX=0;entryY=0.583;entryDx=0;entryDy=0;entryPerimeter=0;endArrow=none;startFill=0;" parent="1" source="ILp8-n_kelNuU-kEh7t1-181" target="ILp8-n_kelNuU-kEh7t1-129" edge="1">
          <mxGeometry relative="1" as="geometry" />
        </mxCell>
        <mxCell id="ILp8-n_kelNuU-kEh7t1-195" style="edgeStyle=orthogonalEdgeStyle;rounded=0;orthogonalLoop=1;jettySize=auto;html=1;entryX=0;entryY=0.417;entryDx=0;entryDy=0;entryPerimeter=0;endArrow=none;startFill=0;" parent="1" source="ILp8-n_kelNuU-kEh7t1-184" target="ILp8-n_kelNuU-kEh7t1-129" edge="1">
          <mxGeometry relative="1" as="geometry" />
        </mxCell>
        <mxCell id="ILp8-n_kelNuU-kEh7t1-196" style="edgeStyle=orthogonalEdgeStyle;rounded=0;orthogonalLoop=1;jettySize=auto;html=1;entryX=0;entryY=0.25;entryDx=0;entryDy=0;endArrow=none;startFill=0;" parent="1" source="ILp8-n_kelNuU-kEh7t1-187" target="ILp8-n_kelNuU-kEh7t1-129" edge="1">
          <mxGeometry relative="1" as="geometry" />
        </mxCell>
        <mxCell id="ILp8-n_kelNuU-kEh7t1-197" value="&lt;span style=&quot;font-weight: 700;&quot;&gt;Borrifacao&lt;/span&gt;" style="rounded=1;whiteSpace=wrap;html=1;" parent="1" vertex="1">
          <mxGeometry x="670" y="415" width="120" height="60" as="geometry" />
        </mxCell>
        <mxCell id="ILp8-n_kelNuU-kEh7t1-198" value="" style="ellipse;whiteSpace=wrap;html=1;aspect=fixed;fillColor=#0000FF;" parent="1" vertex="1">
          <mxGeometry x="860" y="380" width="10" height="10" as="geometry" />
        </mxCell>
        <mxCell id="ILp8-n_kelNuU-kEh7t1-199" value="&lt;span style=&quot;text-wrap-mode: wrap;&quot;&gt;BorrifacaoId&lt;/span&gt;" style="text;html=1;align=left;verticalAlign=middle;resizable=0;points=[];autosize=1;strokeColor=none;fillColor=none;" parent="1" vertex="1">
          <mxGeometry x="880" y="370" width="90" height="30" as="geometry" />
        </mxCell>
        <mxCell id="ILp8-n_kelNuU-kEh7t1-200" value="" style="ellipse;whiteSpace=wrap;html=1;aspect=fixed;fillColor=#FFFFFF;" parent="1" vertex="1">
          <mxGeometry x="860" y="400" width="10" height="10" as="geometry" />
        </mxCell>
        <mxCell id="ILp8-n_kelNuU-kEh7t1-201" value="&lt;span style=&quot;text-wrap-mode: wrap;&quot;&gt;MatriculaDoAgente&lt;/span&gt;" style="text;html=1;align=left;verticalAlign=middle;resizable=0;points=[];autosize=1;strokeColor=none;fillColor=none;" parent="1" vertex="1">
          <mxGeometry x="880" y="390" width="130" height="30" as="geometry" />
        </mxCell>
        <mxCell id="ILp8-n_kelNuU-kEh7t1-202" value="" style="ellipse;whiteSpace=wrap;html=1;aspect=fixed;fillColor=#FFFFFF;" parent="1" vertex="1">
          <mxGeometry x="860" y="420" width="10" height="10" as="geometry" />
        </mxCell>
        <mxCell id="ILp8-n_kelNuU-kEh7t1-203" value="&lt;span style=&quot;text-wrap-mode: wrap;&quot;&gt;DataDoPreenchimento&lt;/span&gt;" style="text;html=1;align=left;verticalAlign=middle;resizable=0;points=[];autosize=1;strokeColor=none;fillColor=none;" parent="1" vertex="1">
          <mxGeometry x="880" y="410" width="140" height="30" as="geometry" />
        </mxCell>
        <mxCell id="ILp8-n_kelNuU-kEh7t1-204" value="" style="ellipse;whiteSpace=wrap;html=1;aspect=fixed;fillColor=#FFFFFF;" parent="1" vertex="1">
          <mxGeometry x="860" y="440" width="10" height="10" as="geometry" />
        </mxCell>
        <mxCell id="ILp8-n_kelNuU-kEh7t1-205" value="&lt;span style=&quot;text-wrap-mode: wrap;&quot;&gt;Pendencia&lt;/span&gt;" style="text;html=1;align=left;verticalAlign=middle;resizable=0;points=[];autosize=1;strokeColor=none;fillColor=none;" parent="1" vertex="1">
          <mxGeometry x="880" y="430" width="80" height="30" as="geometry" />
        </mxCell>
        <mxCell id="ILp8-n_kelNuU-kEh7t1-206" value="" style="ellipse;whiteSpace=wrap;html=1;aspect=fixed;fillColor=#FFFFFF;" parent="1" vertex="1">
          <mxGeometry x="860" y="460" width="10" height="10" as="geometry" />
        </mxCell>
        <mxCell id="ILp8-n_kelNuU-kEh7t1-207" value="&lt;span style=&quot;text-wrap-mode: wrap;&quot;&gt;TipoDeInseticida&lt;/span&gt;" style="text;html=1;align=left;verticalAlign=middle;resizable=0;points=[];autosize=1;strokeColor=none;fillColor=none;" parent="1" vertex="1">
          <mxGeometry x="880" y="450" width="110" height="30" as="geometry" />
        </mxCell>
        <mxCell id="ILp8-n_kelNuU-kEh7t1-208" value="" style="ellipse;whiteSpace=wrap;html=1;aspect=fixed;fillColor=#FFFFFF;" parent="1" vertex="1">
          <mxGeometry x="860" y="480" width="10" height="10" as="geometry" />
        </mxCell>
        <mxCell id="ILp8-n_kelNuU-kEh7t1-209" value="&lt;span style=&quot;text-wrap-mode: wrap;&quot;&gt;NumeroDeCarga&lt;/span&gt;" style="text;html=1;align=left;verticalAlign=middle;resizable=0;points=[];autosize=1;strokeColor=none;fillColor=none;" parent="1" vertex="1">
          <mxGeometry x="880" y="470" width="110" height="30" as="geometry" />
        </mxCell>
        <mxCell id="ILp8-n_kelNuU-kEh7t1-210" value="" style="ellipse;whiteSpace=wrap;html=1;aspect=fixed;fillColor=#FFFFFF;" parent="1" vertex="1">
          <mxGeometry x="860" y="500" width="10" height="10" as="geometry" />
        </mxCell>
        <mxCell id="ILp8-n_kelNuU-kEh7t1-211" value="&lt;span style=&quot;text-wrap-mode: wrap;&quot;&gt;PesquisaId&lt;/span&gt;" style="text;html=1;align=left;verticalAlign=middle;resizable=0;points=[];autosize=1;strokeColor=none;fillColor=none;" parent="1" vertex="1">
          <mxGeometry x="880" y="490" width="80" height="30" as="geometry" />
        </mxCell>
        <mxCell id="ILp8-n_kelNuU-kEh7t1-218" style="edgeStyle=orthogonalEdgeStyle;rounded=0;orthogonalLoop=1;jettySize=auto;html=1;entryX=1;entryY=0.25;entryDx=0;entryDy=0;endArrow=none;startFill=0;" parent="1" source="ILp8-n_kelNuU-kEh7t1-198" target="ILp8-n_kelNuU-kEh7t1-197" edge="1">
          <mxGeometry relative="1" as="geometry" />
        </mxCell>
        <mxCell id="ILp8-n_kelNuU-kEh7t1-219" style="edgeStyle=orthogonalEdgeStyle;rounded=0;orthogonalLoop=1;jettySize=auto;html=1;entryX=1;entryY=0.5;entryDx=0;entryDy=0;endArrow=none;startFill=0;" parent="1" source="ILp8-n_kelNuU-kEh7t1-200" target="ILp8-n_kelNuU-kEh7t1-197" edge="1">
          <mxGeometry relative="1" as="geometry" />
        </mxCell>
        <mxCell id="ILp8-n_kelNuU-kEh7t1-220" style="edgeStyle=orthogonalEdgeStyle;rounded=0;orthogonalLoop=1;jettySize=auto;html=1;entryX=1;entryY=0.75;entryDx=0;entryDy=0;endArrow=none;startFill=0;" parent="1" source="ILp8-n_kelNuU-kEh7t1-202" target="ILp8-n_kelNuU-kEh7t1-197" edge="1">
          <mxGeometry relative="1" as="geometry" />
        </mxCell>
        <mxCell id="ILp8-n_kelNuU-kEh7t1-221" style="edgeStyle=orthogonalEdgeStyle;rounded=0;orthogonalLoop=1;jettySize=auto;html=1;entryX=0.946;entryY=1;entryDx=0;entryDy=0;entryPerimeter=0;endArrow=none;startFill=0;" parent="1" source="ILp8-n_kelNuU-kEh7t1-204" target="ILp8-n_kelNuU-kEh7t1-197" edge="1">
          <mxGeometry relative="1" as="geometry">
            <mxPoint x="840" y="490" as="targetPoint" />
          </mxGeometry>
        </mxCell>
        <mxCell id="ILp8-n_kelNuU-kEh7t1-222" style="edgeStyle=orthogonalEdgeStyle;rounded=0;orthogonalLoop=1;jettySize=auto;html=1;entryX=0.837;entryY=0.99;entryDx=0;entryDy=0;entryPerimeter=0;endArrow=none;startFill=0;" parent="1" source="ILp8-n_kelNuU-kEh7t1-206" target="ILp8-n_kelNuU-kEh7t1-197" edge="1">
          <mxGeometry relative="1" as="geometry" />
        </mxCell>
        <mxCell id="ILp8-n_kelNuU-kEh7t1-223" style="edgeStyle=orthogonalEdgeStyle;rounded=0;orthogonalLoop=1;jettySize=auto;html=1;entryX=0.75;entryY=1;entryDx=0;entryDy=0;endArrow=none;startFill=0;" parent="1" source="ILp8-n_kelNuU-kEh7t1-208" target="ILp8-n_kelNuU-kEh7t1-197" edge="1">
          <mxGeometry relative="1" as="geometry" />
        </mxCell>
        <mxCell id="ILp8-n_kelNuU-kEh7t1-224" style="edgeStyle=orthogonalEdgeStyle;rounded=0;orthogonalLoop=1;jettySize=auto;html=1;entryX=0.66;entryY=1.001;entryDx=0;entryDy=0;entryPerimeter=0;endArrow=none;startFill=0;" parent="1" source="ILp8-n_kelNuU-kEh7t1-210" target="ILp8-n_kelNuU-kEh7t1-197" edge="1">
          <mxGeometry relative="1" as="geometry" />
        </mxCell>
        <mxCell id="ILp8-n_kelNuU-kEh7t1-260" value="&lt;span style=&quot;font-weight: 700;&quot;&gt;PIT&lt;/span&gt;" style="rounded=1;whiteSpace=wrap;html=1;" parent="1" vertex="1">
          <mxGeometry x="700" y="665" width="120" height="60" as="geometry" />
        </mxCell>
        <mxCell id="ILp8-n_kelNuU-kEh7t1-261" value="" style="ellipse;whiteSpace=wrap;html=1;aspect=fixed;fillColor=#0000FF;" parent="1" vertex="1">
          <mxGeometry x="890" y="630" width="10" height="10" as="geometry" />
        </mxCell>
        <mxCell id="ILp8-n_kelNuU-kEh7t1-262" value="&lt;span style=&quot;text-wrap-mode: wrap;&quot;&gt;PitId&lt;/span&gt;" style="text;html=1;align=left;verticalAlign=middle;resizable=0;points=[];autosize=1;strokeColor=none;fillColor=none;" parent="1" vertex="1">
          <mxGeometry x="910" y="620" width="50" height="30" as="geometry" />
        </mxCell>
        <mxCell id="ILp8-n_kelNuU-kEh7t1-263" value="" style="ellipse;whiteSpace=wrap;html=1;aspect=fixed;fillColor=#FFFFFF;" parent="1" vertex="1">
          <mxGeometry x="890" y="650" width="10" height="10" as="geometry" />
        </mxCell>
        <mxCell id="ILp8-n_kelNuU-kEh7t1-264" value="&lt;span style=&quot;text-wrap-mode: wrap;&quot;&gt;NumeracaoDoPit&lt;/span&gt;" style="text;html=1;align=left;verticalAlign=middle;resizable=0;points=[];autosize=1;strokeColor=none;fillColor=none;" parent="1" vertex="1">
          <mxGeometry x="910" y="640" width="110" height="30" as="geometry" />
        </mxCell>
        <mxCell id="ILp8-n_kelNuU-kEh7t1-265" value="" style="ellipse;whiteSpace=wrap;html=1;aspect=fixed;fillColor=#FFFFFF;" parent="1" vertex="1">
          <mxGeometry x="890" y="670" width="10" height="10" as="geometry" />
        </mxCell>
        <mxCell id="ILp8-n_kelNuU-kEh7t1-266" value="&lt;span style=&quot;text-wrap-mode: wrap;&quot;&gt;Cres&lt;/span&gt;" style="text;html=1;align=left;verticalAlign=middle;resizable=0;points=[];autosize=1;strokeColor=none;fillColor=none;" parent="1" vertex="1">
          <mxGeometry x="910" y="660" width="50" height="30" as="geometry" />
        </mxCell>
        <mxCell id="ILp8-n_kelNuU-kEh7t1-267" value="" style="ellipse;whiteSpace=wrap;html=1;aspect=fixed;fillColor=#FFFFFF;" parent="1" vertex="1">
          <mxGeometry x="890" y="690" width="10" height="10" as="geometry" />
        </mxCell>
        <mxCell id="ILp8-n_kelNuU-kEh7t1-268" value="&lt;span style=&quot;text-wrap-mode: wrap;&quot;&gt;Municipio&lt;/span&gt;" style="text;html=1;align=left;verticalAlign=middle;resizable=0;points=[];autosize=1;strokeColor=none;fillColor=none;" parent="1" vertex="1">
          <mxGeometry x="910" y="680" width="70" height="30" as="geometry" />
        </mxCell>
        <mxCell id="ILp8-n_kelNuU-kEh7t1-269" value="" style="ellipse;whiteSpace=wrap;html=1;aspect=fixed;fillColor=#FFFFFF;" parent="1" vertex="1">
          <mxGeometry x="890" y="710" width="10" height="10" as="geometry" />
        </mxCell>
        <mxCell id="ILp8-n_kelNuU-kEh7t1-270" value="&lt;span style=&quot;text-wrap-mode: wrap;&quot;&gt;CodigoDaLocalidade&lt;/span&gt;" style="text;html=1;align=left;verticalAlign=middle;resizable=0;points=[];autosize=1;strokeColor=none;fillColor=none;" parent="1" vertex="1">
          <mxGeometry x="910" y="700" width="130" height="30" as="geometry" />
        </mxCell>
        <mxCell id="ILp8-n_kelNuU-kEh7t1-271" value="" style="ellipse;whiteSpace=wrap;html=1;aspect=fixed;fillColor=#FFFFFF;" parent="1" vertex="1">
          <mxGeometry x="890" y="730" width="10" height="10" as="geometry" />
        </mxCell>
        <mxCell id="ILp8-n_kelNuU-kEh7t1-272" value="&lt;span style=&quot;text-wrap-mode: wrap;&quot;&gt;NumeroDaCasa&lt;/span&gt;" style="text;html=1;align=left;verticalAlign=middle;resizable=0;points=[];autosize=1;strokeColor=none;fillColor=none;" parent="1" vertex="1">
          <mxGeometry x="910" y="720" width="110" height="30" as="geometry" />
        </mxCell>
        <mxCell id="ILp8-n_kelNuU-kEh7t1-273" value="" style="ellipse;whiteSpace=wrap;html=1;aspect=fixed;fillColor=#FFFFFF;" parent="1" vertex="1">
          <mxGeometry x="890" y="750" width="10" height="10" as="geometry" />
        </mxCell>
        <mxCell id="ILp8-n_kelNuU-kEh7t1-274" value="&lt;span style=&quot;text-wrap-mode: wrap;&quot;&gt;OndeEncontrou&lt;/span&gt;" style="text;html=1;align=left;verticalAlign=middle;resizable=0;points=[];autosize=1;strokeColor=none;fillColor=none;" parent="1" vertex="1">
          <mxGeometry x="910" y="740" width="110" height="30" as="geometry" />
        </mxCell>
        <mxCell id="ILp8-n_kelNuU-kEh7t1-275" value="" style="group" parent="1" vertex="1" connectable="0">
          <mxGeometry x="890" y="780" width="160" height="50" as="geometry" />
        </mxCell>
        <mxCell id="ILp8-n_kelNuU-kEh7t1-276" value="" style="ellipse;whiteSpace=wrap;html=1;aspect=fixed;fillColor=#FFFFFF;" parent="ILp8-n_kelNuU-kEh7t1-275" vertex="1">
          <mxGeometry y="10" width="10" height="10" as="geometry" />
        </mxCell>
        <mxCell id="ILp8-n_kelNuU-kEh7t1-277" value="&lt;span style=&quot;text-wrap-mode: wrap;&quot;&gt;NomeDoMorador&lt;/span&gt;" style="text;html=1;align=left;verticalAlign=middle;resizable=0;points=[];autosize=1;strokeColor=none;fillColor=none;" parent="ILp8-n_kelNuU-kEh7t1-275" vertex="1">
          <mxGeometry x="20" width="120" height="30" as="geometry" />
        </mxCell>
        <mxCell id="ILp8-n_kelNuU-kEh7t1-278" value="" style="group" parent="ILp8-n_kelNuU-kEh7t1-275" vertex="1" connectable="0">
          <mxGeometry y="20" width="160" height="30" as="geometry" />
        </mxCell>
        <mxCell id="ILp8-n_kelNuU-kEh7t1-279" value="" style="ellipse;whiteSpace=wrap;html=1;aspect=fixed;fillColor=#FFFFFF;" parent="ILp8-n_kelNuU-kEh7t1-278" vertex="1">
          <mxGeometry y="10" width="10" height="10" as="geometry" />
        </mxCell>
        <mxCell id="ILp8-n_kelNuU-kEh7t1-280" value="&lt;span style=&quot;text-wrap-mode: wrap;&quot;&gt;NomeDoCapturador&lt;/span&gt;" style="text;html=1;align=left;verticalAlign=middle;resizable=0;points=[];autosize=1;strokeColor=none;fillColor=none;" parent="ILp8-n_kelNuU-kEh7t1-278" vertex="1">
          <mxGeometry x="20" width="130" height="30" as="geometry" />
        </mxCell>
        <mxCell id="ILp8-n_kelNuU-kEh7t1-281" style="edgeStyle=orthogonalEdgeStyle;rounded=0;orthogonalLoop=1;jettySize=auto;html=1;entryX=1;entryY=0.25;entryDx=0;entryDy=0;endArrow=none;startFill=0;" parent="1" source="ILp8-n_kelNuU-kEh7t1-261" target="ILp8-n_kelNuU-kEh7t1-260" edge="1">
          <mxGeometry relative="1" as="geometry" />
        </mxCell>
        <mxCell id="ILp8-n_kelNuU-kEh7t1-282" style="edgeStyle=orthogonalEdgeStyle;rounded=0;orthogonalLoop=1;jettySize=auto;html=1;entryX=1;entryY=0.5;entryDx=0;entryDy=0;endArrow=none;startFill=0;" parent="1" source="ILp8-n_kelNuU-kEh7t1-263" target="ILp8-n_kelNuU-kEh7t1-260" edge="1">
          <mxGeometry relative="1" as="geometry" />
        </mxCell>
        <mxCell id="ILp8-n_kelNuU-kEh7t1-283" style="edgeStyle=orthogonalEdgeStyle;rounded=0;orthogonalLoop=1;jettySize=auto;html=1;entryX=1;entryY=0.75;entryDx=0;entryDy=0;endArrow=none;startFill=0;" parent="1" source="ILp8-n_kelNuU-kEh7t1-265" target="ILp8-n_kelNuU-kEh7t1-260" edge="1">
          <mxGeometry relative="1" as="geometry" />
        </mxCell>
        <mxCell id="ILp8-n_kelNuU-kEh7t1-284" style="edgeStyle=orthogonalEdgeStyle;rounded=0;orthogonalLoop=1;jettySize=auto;html=1;entryX=0.946;entryY=1;entryDx=0;entryDy=0;entryPerimeter=0;endArrow=none;startFill=0;" parent="1" source="ILp8-n_kelNuU-kEh7t1-267" target="ILp8-n_kelNuU-kEh7t1-260" edge="1">
          <mxGeometry relative="1" as="geometry">
            <mxPoint x="870" y="740" as="targetPoint" />
          </mxGeometry>
        </mxCell>
        <mxCell id="ILp8-n_kelNuU-kEh7t1-285" style="edgeStyle=orthogonalEdgeStyle;rounded=0;orthogonalLoop=1;jettySize=auto;html=1;entryX=0.837;entryY=0.99;entryDx=0;entryDy=0;entryPerimeter=0;endArrow=none;startFill=0;" parent="1" source="ILp8-n_kelNuU-kEh7t1-269" target="ILp8-n_kelNuU-kEh7t1-260" edge="1">
          <mxGeometry relative="1" as="geometry" />
        </mxCell>
        <mxCell id="ILp8-n_kelNuU-kEh7t1-286" style="edgeStyle=orthogonalEdgeStyle;rounded=0;orthogonalLoop=1;jettySize=auto;html=1;entryX=0.75;entryY=1;entryDx=0;entryDy=0;endArrow=none;startFill=0;" parent="1" source="ILp8-n_kelNuU-kEh7t1-271" target="ILp8-n_kelNuU-kEh7t1-260" edge="1">
          <mxGeometry relative="1" as="geometry" />
        </mxCell>
        <mxCell id="ILp8-n_kelNuU-kEh7t1-287" style="edgeStyle=orthogonalEdgeStyle;rounded=0;orthogonalLoop=1;jettySize=auto;html=1;entryX=0.66;entryY=1.001;entryDx=0;entryDy=0;entryPerimeter=0;endArrow=none;startFill=0;" parent="1" source="ILp8-n_kelNuU-kEh7t1-273" target="ILp8-n_kelNuU-kEh7t1-260" edge="1">
          <mxGeometry relative="1" as="geometry" />
        </mxCell>
        <mxCell id="ILp8-n_kelNuU-kEh7t1-288" style="edgeStyle=orthogonalEdgeStyle;rounded=0;orthogonalLoop=1;jettySize=auto;html=1;entryX=0.574;entryY=1.012;entryDx=0;entryDy=0;entryPerimeter=0;endArrow=none;startFill=0;" parent="1" source="ILp8-n_kelNuU-kEh7t1-291" target="ILp8-n_kelNuU-kEh7t1-260" edge="1">
          <mxGeometry relative="1" as="geometry" />
        </mxCell>
        <mxCell id="ILp8-n_kelNuU-kEh7t1-289" style="edgeStyle=orthogonalEdgeStyle;rounded=0;orthogonalLoop=1;jettySize=auto;html=1;entryX=0.5;entryY=1;entryDx=0;entryDy=0;endArrow=none;startFill=0;" parent="1" source="ILp8-n_kelNuU-kEh7t1-276" target="ILp8-n_kelNuU-kEh7t1-260" edge="1">
          <mxGeometry relative="1" as="geometry" />
        </mxCell>
        <mxCell id="ILp8-n_kelNuU-kEh7t1-290" value="" style="group" parent="1" vertex="1" connectable="0">
          <mxGeometry x="890" y="760" width="160" height="30" as="geometry" />
        </mxCell>
        <mxCell id="ILp8-n_kelNuU-kEh7t1-291" value="" style="ellipse;whiteSpace=wrap;html=1;aspect=fixed;fillColor=#FFFFFF;" parent="ILp8-n_kelNuU-kEh7t1-290" vertex="1">
          <mxGeometry y="10" width="10" height="10" as="geometry" />
        </mxCell>
        <mxCell id="ILp8-n_kelNuU-kEh7t1-292" value="&lt;span style=&quot;text-wrap-mode: wrap;&quot;&gt;LocalOndeEntrou&lt;/span&gt;" style="text;html=1;align=left;verticalAlign=middle;resizable=0;points=[];autosize=1;strokeColor=none;fillColor=none;" parent="ILp8-n_kelNuU-kEh7t1-290" vertex="1">
          <mxGeometry x="20" width="120" height="30" as="geometry" />
        </mxCell>
        <mxCell id="ILp8-n_kelNuU-kEh7t1-293" value="" style="group" parent="1" vertex="1" connectable="0">
          <mxGeometry x="890" y="820" width="160" height="50" as="geometry" />
        </mxCell>
        <mxCell id="ILp8-n_kelNuU-kEh7t1-294" value="" style="ellipse;whiteSpace=wrap;html=1;aspect=fixed;fillColor=#FFFFFF;" parent="ILp8-n_kelNuU-kEh7t1-293" vertex="1">
          <mxGeometry y="10" width="10" height="10" as="geometry" />
        </mxCell>
        <mxCell id="ILp8-n_kelNuU-kEh7t1-295" value="&lt;span style=&quot;text-wrap-mode: wrap;&quot;&gt;TipoDeInseto&lt;/span&gt;" style="text;html=1;align=left;verticalAlign=middle;resizable=0;points=[];autosize=1;strokeColor=none;fillColor=none;" parent="ILp8-n_kelNuU-kEh7t1-293" vertex="1">
          <mxGeometry x="20" width="90" height="30" as="geometry" />
        </mxCell>
        <mxCell id="ILp8-n_kelNuU-kEh7t1-296" value="" style="group" parent="ILp8-n_kelNuU-kEh7t1-293" vertex="1" connectable="0">
          <mxGeometry y="20" width="160" height="30" as="geometry" />
        </mxCell>
        <mxCell id="ILp8-n_kelNuU-kEh7t1-297" value="" style="ellipse;whiteSpace=wrap;html=1;aspect=fixed;fillColor=#FFFFFF;" parent="ILp8-n_kelNuU-kEh7t1-296" vertex="1">
          <mxGeometry y="10" width="10" height="10" as="geometry" />
        </mxCell>
        <mxCell id="ILp8-n_kelNuU-kEh7t1-298" value="&lt;span style=&quot;text-wrap-mode: wrap;&quot;&gt;NomeDoRecebedor&lt;/span&gt;" style="text;html=1;align=left;verticalAlign=middle;resizable=0;points=[];autosize=1;strokeColor=none;fillColor=none;" parent="ILp8-n_kelNuU-kEh7t1-296" vertex="1">
          <mxGeometry x="20" width="130" height="30" as="geometry" />
        </mxCell>
        <mxCell id="ILp8-n_kelNuU-kEh7t1-299" value="" style="group" parent="1" vertex="1" connectable="0">
          <mxGeometry x="890" y="860" width="160" height="130" as="geometry" />
        </mxCell>
        <mxCell id="ILp8-n_kelNuU-kEh7t1-300" value="" style="ellipse;whiteSpace=wrap;html=1;aspect=fixed;fillColor=#FFFFFF;" parent="ILp8-n_kelNuU-kEh7t1-299" vertex="1">
          <mxGeometry y="10" width="10" height="10" as="geometry" />
        </mxCell>
        <mxCell id="ILp8-n_kelNuU-kEh7t1-301" value="&lt;span style=&quot;text-wrap-mode: wrap;&quot;&gt;DataDoRegistro&lt;/span&gt;" style="text;html=1;align=left;verticalAlign=middle;resizable=0;points=[];autosize=1;strokeColor=none;fillColor=none;" parent="ILp8-n_kelNuU-kEh7t1-299" vertex="1">
          <mxGeometry x="20" width="110" height="30" as="geometry" />
        </mxCell>
        <mxCell id="ILp8-n_kelNuU-kEh7t1-302" value="" style="group" parent="ILp8-n_kelNuU-kEh7t1-299" vertex="1" connectable="0">
          <mxGeometry y="20" width="160" height="110" as="geometry" />
        </mxCell>
        <mxCell id="ILp8-n_kelNuU-kEh7t1-303" value="" style="ellipse;whiteSpace=wrap;html=1;aspect=fixed;fillColor=#FFFFFF;" parent="ILp8-n_kelNuU-kEh7t1-302" vertex="1">
          <mxGeometry y="10" width="10" height="10" as="geometry" />
        </mxCell>
        <mxCell id="ILp8-n_kelNuU-kEh7t1-304" value="&lt;span style=&quot;text-wrap-mode: wrap;&quot;&gt;PesquisaId&lt;/span&gt;" style="text;html=1;align=left;verticalAlign=middle;resizable=0;points=[];autosize=1;strokeColor=none;fillColor=none;" parent="ILp8-n_kelNuU-kEh7t1-302" vertex="1">
          <mxGeometry x="20" width="80" height="30" as="geometry" />
        </mxCell>
        <mxCell id="-h6WGbTKZ45hAwRw8tWW-25" value="" style="ellipse;whiteSpace=wrap;html=1;aspect=fixed;fillColor=#FFFFFF;" parent="ILp8-n_kelNuU-kEh7t1-302" vertex="1">
          <mxGeometry y="30" width="10" height="10" as="geometry" />
        </mxCell>
        <mxCell id="-h6WGbTKZ45hAwRw8tWW-26" value="&lt;span style=&quot;text-wrap-mode: wrap;&quot;&gt;DataDeRegistro&lt;/span&gt;" style="text;html=1;align=left;verticalAlign=middle;resizable=0;points=[];autosize=1;strokeColor=none;fillColor=none;" parent="ILp8-n_kelNuU-kEh7t1-302" vertex="1">
          <mxGeometry x="20" y="20" width="110" height="30" as="geometry" />
        </mxCell>
        <mxCell id="-h6WGbTKZ45hAwRw8tWW-27" value="" style="ellipse;whiteSpace=wrap;html=1;aspect=fixed;fillColor=#FFFFFF;" parent="ILp8-n_kelNuU-kEh7t1-302" vertex="1">
          <mxGeometry y="50" width="10" height="10" as="geometry" />
        </mxCell>
        <mxCell id="-h6WGbTKZ45hAwRw8tWW-28" value="&lt;span style=&quot;text-wrap-mode: wrap;&quot;&gt;DataDeAtualizaÃ§Ã£o&lt;/span&gt;" style="text;html=1;align=left;verticalAlign=middle;resizable=0;points=[];autosize=1;strokeColor=none;fillColor=none;" parent="ILp8-n_kelNuU-kEh7t1-302" vertex="1">
          <mxGeometry x="20" y="40" width="130" height="30" as="geometry" />
        </mxCell>
        <mxCell id="-h6WGbTKZ45hAwRw8tWW-29" value="" style="ellipse;whiteSpace=wrap;html=1;aspect=fixed;fillColor=#FFFFFF;" parent="ILp8-n_kelNuU-kEh7t1-302" vertex="1">
          <mxGeometry y="70" width="10" height="10" as="geometry" />
        </mxCell>
        <mxCell id="-h6WGbTKZ45hAwRw8tWW-30" value="&lt;span style=&quot;text-wrap-mode: wrap;&quot;&gt;CriadoPor&lt;/span&gt;" style="text;html=1;align=left;verticalAlign=middle;resizable=0;points=[];autosize=1;strokeColor=none;fillColor=none;" parent="ILp8-n_kelNuU-kEh7t1-302" vertex="1">
          <mxGeometry x="20" y="60" width="80" height="30" as="geometry" />
        </mxCell>
        <mxCell id="-h6WGbTKZ45hAwRw8tWW-31" value="" style="ellipse;whiteSpace=wrap;html=1;aspect=fixed;fillColor=#FFFFFF;" parent="ILp8-n_kelNuU-kEh7t1-302" vertex="1">
          <mxGeometry y="90" width="10" height="10" as="geometry" />
        </mxCell>
        <mxCell id="-h6WGbTKZ45hAwRw8tWW-32" value="&lt;span style=&quot;text-wrap-mode: wrap;&quot;&gt;AtualizadoPor&lt;/span&gt;" style="text;html=1;align=left;verticalAlign=middle;resizable=0;points=[];autosize=1;strokeColor=none;fillColor=none;" parent="ILp8-n_kelNuU-kEh7t1-302" vertex="1">
          <mxGeometry x="20" y="80" width="100" height="30" as="geometry" />
        </mxCell>
        <mxCell id="ILp8-n_kelNuU-kEh7t1-314" style="edgeStyle=orthogonalEdgeStyle;rounded=0;orthogonalLoop=1;jettySize=auto;html=1;entryX=0.393;entryY=0.991;entryDx=0;entryDy=0;entryPerimeter=0;endArrow=none;startFill=0;" parent="1" source="ILp8-n_kelNuU-kEh7t1-279" target="ILp8-n_kelNuU-kEh7t1-260" edge="1">
          <mxGeometry relative="1" as="geometry" />
        </mxCell>
        <mxCell id="ILp8-n_kelNuU-kEh7t1-315" style="edgeStyle=orthogonalEdgeStyle;rounded=0;orthogonalLoop=1;jettySize=auto;html=1;entryX=0.303;entryY=0.991;entryDx=0;entryDy=0;entryPerimeter=0;endArrow=none;startFill=0;" parent="1" source="ILp8-n_kelNuU-kEh7t1-294" target="ILp8-n_kelNuU-kEh7t1-260" edge="1">
          <mxGeometry relative="1" as="geometry" />
        </mxCell>
        <mxCell id="ILp8-n_kelNuU-kEh7t1-316" style="edgeStyle=orthogonalEdgeStyle;rounded=0;orthogonalLoop=1;jettySize=auto;html=1;entryX=0.213;entryY=0.991;entryDx=0;entryDy=0;entryPerimeter=0;endArrow=none;startFill=0;" parent="1" source="ILp8-n_kelNuU-kEh7t1-297" target="ILp8-n_kelNuU-kEh7t1-260" edge="1">
          <mxGeometry relative="1" as="geometry" />
        </mxCell>
        <mxCell id="ILp8-n_kelNuU-kEh7t1-317" style="edgeStyle=orthogonalEdgeStyle;rounded=0;orthogonalLoop=1;jettySize=auto;html=1;entryX=0.123;entryY=0.991;entryDx=0;entryDy=0;entryPerimeter=0;endArrow=none;startFill=0;" parent="1" source="ILp8-n_kelNuU-kEh7t1-300" target="ILp8-n_kelNuU-kEh7t1-260" edge="1">
          <mxGeometry relative="1" as="geometry" />
        </mxCell>
        <mxCell id="ILp8-n_kelNuU-kEh7t1-318" style="edgeStyle=orthogonalEdgeStyle;rounded=0;orthogonalLoop=1;jettySize=auto;html=1;entryX=0;entryY=0.75;entryDx=0;entryDy=0;endArrow=none;startFill=0;" parent="1" source="ILp8-n_kelNuU-kEh7t1-303" target="ILp8-n_kelNuU-kEh7t1-260" edge="1">
          <mxGeometry relative="1" as="geometry" />
        </mxCell>
        <mxCell id="ILp8-n_kelNuU-kEh7t1-322" value="&lt;span style=&quot;font-weight: 700;&quot;&gt;RelatorioSemanal&lt;/span&gt;" style="rounded=1;whiteSpace=wrap;html=1;" parent="1" vertex="1">
          <mxGeometry x="100" y="945" width="120" height="60" as="geometry" />
        </mxCell>
        <mxCell id="ILp8-n_kelNuU-kEh7t1-323" value="" style="ellipse;whiteSpace=wrap;html=1;aspect=fixed;fillColor=#0000FF;" parent="1" vertex="1">
          <mxGeometry x="290" y="910" width="10" height="10" as="geometry" />
        </mxCell>
        <mxCell id="ILp8-n_kelNuU-kEh7t1-324" value="&lt;span style=&quot;text-wrap-mode: wrap;&quot;&gt;RelatorioSemanalId&lt;/span&gt;" style="text;html=1;align=left;verticalAlign=middle;resizable=0;points=[];autosize=1;strokeColor=none;fillColor=none;" parent="1" vertex="1">
          <mxGeometry x="310" y="900" width="130" height="30" as="geometry" />
        </mxCell>
        <mxCell id="ILp8-n_kelNuU-kEh7t1-325" value="" style="ellipse;whiteSpace=wrap;html=1;aspect=fixed;fillColor=#FFFFFF;" parent="1" vertex="1">
          <mxGeometry x="290" y="930" width="10" height="10" as="geometry" />
        </mxCell>
        <mxCell id="ILp8-n_kelNuU-kEh7t1-326" value="&lt;span style=&quot;text-wrap-mode: wrap;&quot;&gt;Microrregional&lt;/span&gt;" style="text;html=1;align=left;verticalAlign=middle;resizable=0;points=[];autosize=1;strokeColor=none;fillColor=none;" parent="1" vertex="1">
          <mxGeometry x="310" y="920" width="100" height="30" as="geometry" />
        </mxCell>
        <mxCell id="ILp8-n_kelNuU-kEh7t1-327" value="" style="ellipse;whiteSpace=wrap;html=1;aspect=fixed;fillColor=#FFFFFF;" parent="1" vertex="1">
          <mxGeometry x="290" y="950" width="10" height="10" as="geometry" />
        </mxCell>
        <mxCell id="ILp8-n_kelNuU-kEh7t1-328" value="&lt;span style=&quot;text-wrap-mode: wrap;&quot;&gt;Municipio&lt;/span&gt;" style="text;html=1;align=left;verticalAlign=middle;resizable=0;points=[];autosize=1;strokeColor=none;fillColor=none;" parent="1" vertex="1">
          <mxGeometry x="310" y="940" width="70" height="30" as="geometry" />
        </mxCell>
        <mxCell id="ILp8-n_kelNuU-kEh7t1-329" value="" style="ellipse;whiteSpace=wrap;html=1;aspect=fixed;fillColor=#FFFFFF;" parent="1" vertex="1">
          <mxGeometry x="290" y="970" width="10" height="10" as="geometry" />
        </mxCell>
        <mxCell id="ILp8-n_kelNuU-kEh7t1-330" value="&lt;span style=&quot;text-wrap-mode: wrap;&quot;&gt;FaseDeTrabalho&lt;/span&gt;" style="text;html=1;align=left;verticalAlign=middle;resizable=0;points=[];autosize=1;strokeColor=none;fillColor=none;" parent="1" vertex="1">
          <mxGeometry x="310" y="960" width="110" height="30" as="geometry" />
        </mxCell>
        <mxCell id="ILp8-n_kelNuU-kEh7t1-331" value="" style="ellipse;whiteSpace=wrap;html=1;aspect=fixed;fillColor=#FFFFFF;" parent="1" vertex="1">
          <mxGeometry x="290" y="990" width="10" height="10" as="geometry" />
        </mxCell>
        <mxCell id="ILp8-n_kelNuU-kEh7t1-332" value="&lt;span style=&quot;text-wrap-mode: wrap;&quot;&gt;SemanaDoAno&lt;/span&gt;" style="text;html=1;align=left;verticalAlign=middle;resizable=0;points=[];autosize=1;strokeColor=none;fillColor=none;" parent="1" vertex="1">
          <mxGeometry x="310" y="980" width="100" height="30" as="geometry" />
        </mxCell>
        <mxCell id="ILp8-n_kelNuU-kEh7t1-333" value="" style="ellipse;whiteSpace=wrap;html=1;aspect=fixed;fillColor=#FFFFFF;" parent="1" vertex="1">
          <mxGeometry x="290" y="1010" width="10" height="10" as="geometry" />
        </mxCell>
        <mxCell id="ILp8-n_kelNuU-kEh7t1-334" value="&lt;span style=&quot;text-wrap-mode: wrap;&quot;&gt;Turma&lt;/span&gt;" style="text;html=1;align=left;verticalAlign=middle;resizable=0;points=[];autosize=1;strokeColor=none;fillColor=none;" parent="1" vertex="1">
          <mxGeometry x="310" y="1000" width="60" height="30" as="geometry" />
        </mxCell>
        <mxCell id="ILp8-n_kelNuU-kEh7t1-335" value="" style="ellipse;whiteSpace=wrap;html=1;aspect=fixed;fillColor=#FFFFFF;" parent="1" vertex="1">
          <mxGeometry x="290" y="1030" width="10" height="10" as="geometry" />
        </mxCell>
        <mxCell id="ILp8-n_kelNuU-kEh7t1-336" value="&lt;span style=&quot;text-wrap-mode: wrap;&quot;&gt;GuardaChefe&lt;/span&gt;" style="text;html=1;align=left;verticalAlign=middle;resizable=0;points=[];autosize=1;strokeColor=none;fillColor=none;" parent="1" vertex="1">
          <mxGeometry x="310" y="1020" width="100" height="30" as="geometry" />
        </mxCell>
        <mxCell id="ILp8-n_kelNuU-kEh7t1-343" style="edgeStyle=orthogonalEdgeStyle;rounded=0;orthogonalLoop=1;jettySize=auto;html=1;entryX=1;entryY=0.25;entryDx=0;entryDy=0;endArrow=none;startFill=0;" parent="1" source="ILp8-n_kelNuU-kEh7t1-323" target="ILp8-n_kelNuU-kEh7t1-322" edge="1">
          <mxGeometry relative="1" as="geometry" />
        </mxCell>
        <mxCell id="ILp8-n_kelNuU-kEh7t1-344" style="edgeStyle=orthogonalEdgeStyle;rounded=0;orthogonalLoop=1;jettySize=auto;html=1;entryX=1;entryY=0.5;entryDx=0;entryDy=0;endArrow=none;startFill=0;" parent="1" source="ILp8-n_kelNuU-kEh7t1-325" target="ILp8-n_kelNuU-kEh7t1-322" edge="1">
          <mxGeometry relative="1" as="geometry" />
        </mxCell>
        <mxCell id="ILp8-n_kelNuU-kEh7t1-345" style="edgeStyle=orthogonalEdgeStyle;rounded=0;orthogonalLoop=1;jettySize=auto;html=1;entryX=1;entryY=0.75;entryDx=0;entryDy=0;endArrow=none;startFill=0;" parent="1" source="ILp8-n_kelNuU-kEh7t1-327" target="ILp8-n_kelNuU-kEh7t1-322" edge="1">
          <mxGeometry relative="1" as="geometry" />
        </mxCell>
        <mxCell id="ILp8-n_kelNuU-kEh7t1-346" style="edgeStyle=orthogonalEdgeStyle;rounded=0;orthogonalLoop=1;jettySize=auto;html=1;entryX=0.946;entryY=1;entryDx=0;entryDy=0;entryPerimeter=0;endArrow=none;startFill=0;" parent="1" source="ILp8-n_kelNuU-kEh7t1-329" target="ILp8-n_kelNuU-kEh7t1-322" edge="1">
          <mxGeometry relative="1" as="geometry">
            <mxPoint x="270" y="1020" as="targetPoint" />
          </mxGeometry>
        </mxCell>
        <mxCell id="ILp8-n_kelNuU-kEh7t1-347" style="edgeStyle=orthogonalEdgeStyle;rounded=0;orthogonalLoop=1;jettySize=auto;html=1;entryX=0.837;entryY=0.99;entryDx=0;entryDy=0;entryPerimeter=0;endArrow=none;startFill=0;" parent="1" source="ILp8-n_kelNuU-kEh7t1-331" target="ILp8-n_kelNuU-kEh7t1-322" edge="1">
          <mxGeometry relative="1" as="geometry" />
        </mxCell>
        <mxCell id="ILp8-n_kelNuU-kEh7t1-348" style="edgeStyle=orthogonalEdgeStyle;rounded=0;orthogonalLoop=1;jettySize=auto;html=1;entryX=0.75;entryY=1;entryDx=0;entryDy=0;endArrow=none;startFill=0;" parent="1" source="ILp8-n_kelNuU-kEh7t1-333" target="ILp8-n_kelNuU-kEh7t1-322" edge="1">
          <mxGeometry relative="1" as="geometry" />
        </mxCell>
        <mxCell id="ILp8-n_kelNuU-kEh7t1-349" style="edgeStyle=orthogonalEdgeStyle;rounded=0;orthogonalLoop=1;jettySize=auto;html=1;entryX=0.66;entryY=1.001;entryDx=0;entryDy=0;entryPerimeter=0;endArrow=none;startFill=0;" parent="1" source="ILp8-n_kelNuU-kEh7t1-335" target="ILp8-n_kelNuU-kEh7t1-322" edge="1">
          <mxGeometry relative="1" as="geometry" />
        </mxCell>
        <mxCell id="ILp8-n_kelNuU-kEh7t1-484" value="" style="group" parent="1" vertex="1" connectable="0">
          <mxGeometry x="280" y="1250" width="400" height="430" as="geometry" />
        </mxCell>
        <mxCell id="ILp8-n_kelNuU-kEh7t1-384" value="&lt;span style=&quot;font-weight: 700;&quot;&gt;DadosRelatorio&lt;/span&gt;" style="rounded=1;whiteSpace=wrap;html=1;" parent="ILp8-n_kelNuU-kEh7t1-484" vertex="1">
          <mxGeometry y="45" width="120" height="60" as="geometry" />
        </mxCell>
        <mxCell id="ILp8-n_kelNuU-kEh7t1-385" value="" style="ellipse;whiteSpace=wrap;html=1;aspect=fixed;fillColor=#0000FF;" parent="ILp8-n_kelNuU-kEh7t1-484" vertex="1">
          <mxGeometry x="190" y="10" width="10" height="10" as="geometry" />
        </mxCell>
        <mxCell id="ILp8-n_kelNuU-kEh7t1-386" value="&lt;span style=&quot;text-wrap-mode: wrap;&quot;&gt;DadosRelatorioId&lt;/span&gt;" style="text;html=1;align=left;verticalAlign=middle;resizable=0;points=[];autosize=1;strokeColor=none;fillColor=none;" parent="ILp8-n_kelNuU-kEh7t1-484" vertex="1">
          <mxGeometry x="210" width="120" height="30" as="geometry" />
        </mxCell>
        <mxCell id="ILp8-n_kelNuU-kEh7t1-387" value="" style="ellipse;whiteSpace=wrap;html=1;aspect=fixed;fillColor=#FFFFFF;" parent="ILp8-n_kelNuU-kEh7t1-484" vertex="1">
          <mxGeometry x="190" y="30" width="10" height="10" as="geometry" />
        </mxCell>
        <mxCell id="ILp8-n_kelNuU-kEh7t1-388" value="&lt;span style=&quot;text-wrap-mode: wrap;&quot;&gt;RelatorioSemanalId&lt;/span&gt;" style="text;html=1;align=left;verticalAlign=middle;resizable=0;points=[];autosize=1;strokeColor=none;fillColor=none;" parent="ILp8-n_kelNuU-kEh7t1-484" vertex="1">
          <mxGeometry x="210" y="20" width="130" height="30" as="geometry" />
        </mxCell>
        <mxCell id="ILp8-n_kelNuU-kEh7t1-389" value="" style="ellipse;whiteSpace=wrap;html=1;aspect=fixed;fillColor=#FFFFFF;" parent="ILp8-n_kelNuU-kEh7t1-484" vertex="1">
          <mxGeometry x="190" y="50" width="10" height="10" as="geometry" />
        </mxCell>
        <mxCell id="ILp8-n_kelNuU-kEh7t1-390" value="&lt;span style=&quot;text-wrap-mode: wrap;&quot;&gt;Data&lt;/span&gt;" style="text;html=1;align=left;verticalAlign=middle;resizable=0;points=[];autosize=1;strokeColor=none;fillColor=none;" parent="ILp8-n_kelNuU-kEh7t1-484" vertex="1">
          <mxGeometry x="210" y="40" width="50" height="30" as="geometry" />
        </mxCell>
        <mxCell id="ILp8-n_kelNuU-kEh7t1-391" value="" style="ellipse;whiteSpace=wrap;html=1;aspect=fixed;fillColor=#FFFFFF;" parent="ILp8-n_kelNuU-kEh7t1-484" vertex="1">
          <mxGeometry x="190" y="70" width="10" height="10" as="geometry" />
        </mxCell>
        <mxCell id="ILp8-n_kelNuU-kEh7t1-392" value="&lt;span style=&quot;text-wrap-mode: wrap;&quot;&gt;CodigoLocalidade&lt;/span&gt;" style="text;html=1;align=left;verticalAlign=middle;resizable=0;points=[];autosize=1;strokeColor=none;fillColor=none;" parent="ILp8-n_kelNuU-kEh7t1-484" vertex="1">
          <mxGeometry x="210" y="60" width="120" height="30" as="geometry" />
        </mxCell>
        <mxCell id="ILp8-n_kelNuU-kEh7t1-393" value="" style="ellipse;whiteSpace=wrap;html=1;aspect=fixed;fillColor=#FFFFFF;" parent="ILp8-n_kelNuU-kEh7t1-484" vertex="1">
          <mxGeometry x="190" y="90" width="10" height="10" as="geometry" />
        </mxCell>
        <mxCell id="ILp8-n_kelNuU-kEh7t1-394" value="&lt;span style=&quot;text-wrap-mode: wrap;&quot;&gt;Localidade&lt;/span&gt;" style="text;html=1;align=left;verticalAlign=middle;resizable=0;points=[];autosize=1;strokeColor=none;fillColor=none;" parent="ILp8-n_kelNuU-kEh7t1-484" vertex="1">
          <mxGeometry x="210" y="80" width="80" height="30" as="geometry" />
        </mxCell>
        <mxCell id="ILp8-n_kelNuU-kEh7t1-395" value="" style="ellipse;whiteSpace=wrap;html=1;aspect=fixed;fillColor=#FFFFFF;" parent="ILp8-n_kelNuU-kEh7t1-484" vertex="1">
          <mxGeometry x="190" y="110" width="10" height="10" as="geometry" />
        </mxCell>
        <mxCell id="ILp8-n_kelNuU-kEh7t1-396" value="&lt;span style=&quot;text-wrap-mode: wrap;&quot;&gt;NumeroDeHabitantes&lt;/span&gt;" style="text;html=1;align=left;verticalAlign=middle;resizable=0;points=[];autosize=1;strokeColor=none;fillColor=none;" parent="ILp8-n_kelNuU-kEh7t1-484" vertex="1">
          <mxGeometry x="210" y="100" width="140" height="30" as="geometry" />
        </mxCell>
        <mxCell id="ILp8-n_kelNuU-kEh7t1-397" value="" style="ellipse;whiteSpace=wrap;html=1;aspect=fixed;fillColor=#FFFFFF;" parent="ILp8-n_kelNuU-kEh7t1-484" vertex="1">
          <mxGeometry x="190" y="130" width="10" height="10" as="geometry" />
        </mxCell>
        <mxCell id="ILp8-n_kelNuU-kEh7t1-398" value="&lt;span style=&quot;text-wrap-mode: wrap;&quot;&gt;LocalidadePositivo&lt;/span&gt;" style="text;html=1;align=left;verticalAlign=middle;resizable=0;points=[];autosize=1;strokeColor=none;fillColor=none;" parent="ILp8-n_kelNuU-kEh7t1-484" vertex="1">
          <mxGeometry x="210" y="120" width="120" height="30" as="geometry" />
        </mxCell>
        <mxCell id="ILp8-n_kelNuU-kEh7t1-399" value="" style="group" parent="ILp8-n_kelNuU-kEh7t1-484" vertex="1" connectable="0">
          <mxGeometry x="190" y="160" width="170" height="50" as="geometry" />
        </mxCell>
        <mxCell id="ILp8-n_kelNuU-kEh7t1-400" value="" style="ellipse;whiteSpace=wrap;html=1;aspect=fixed;fillColor=#FFFFFF;" parent="ILp8-n_kelNuU-kEh7t1-399" vertex="1">
          <mxGeometry y="10" width="10" height="10" as="geometry" />
        </mxCell>
        <mxCell id="ILp8-n_kelNuU-kEh7t1-401" value="&lt;span style=&quot;text-wrap-mode: wrap;&quot;&gt;NumeroDeResidencias&lt;/span&gt;" style="text;html=1;align=left;verticalAlign=middle;resizable=0;points=[];autosize=1;strokeColor=none;fillColor=none;" parent="ILp8-n_kelNuU-kEh7t1-399" vertex="1">
          <mxGeometry x="20" width="150" height="30" as="geometry" />
        </mxCell>
        <mxCell id="ILp8-n_kelNuU-kEh7t1-402" value="" style="group" parent="ILp8-n_kelNuU-kEh7t1-399" vertex="1" connectable="0">
          <mxGeometry y="20" width="160" height="30" as="geometry" />
        </mxCell>
        <mxCell id="ILp8-n_kelNuU-kEh7t1-403" value="" style="ellipse;whiteSpace=wrap;html=1;aspect=fixed;fillColor=#FFFFFF;" parent="ILp8-n_kelNuU-kEh7t1-402" vertex="1">
          <mxGeometry y="10" width="10" height="10" as="geometry" />
        </mxCell>
        <mxCell id="ILp8-n_kelNuU-kEh7t1-404" value="&lt;span style=&quot;text-wrap-mode: wrap;&quot;&gt;NumeroDeComercios&lt;/span&gt;" style="text;html=1;align=left;verticalAlign=middle;resizable=0;points=[];autosize=1;strokeColor=none;fillColor=none;" parent="ILp8-n_kelNuU-kEh7t1-402" vertex="1">
          <mxGeometry x="20" width="140" height="30" as="geometry" />
        </mxCell>
        <mxCell id="ILp8-n_kelNuU-kEh7t1-405" style="edgeStyle=orthogonalEdgeStyle;rounded=0;orthogonalLoop=1;jettySize=auto;html=1;entryX=1;entryY=0.25;entryDx=0;entryDy=0;endArrow=none;startFill=0;" parent="ILp8-n_kelNuU-kEh7t1-484" source="ILp8-n_kelNuU-kEh7t1-385" target="ILp8-n_kelNuU-kEh7t1-384" edge="1">
          <mxGeometry relative="1" as="geometry" />
        </mxCell>
        <mxCell id="ILp8-n_kelNuU-kEh7t1-406" style="edgeStyle=orthogonalEdgeStyle;rounded=0;orthogonalLoop=1;jettySize=auto;html=1;entryX=1;entryY=0.5;entryDx=0;entryDy=0;endArrow=none;startFill=0;" parent="ILp8-n_kelNuU-kEh7t1-484" source="ILp8-n_kelNuU-kEh7t1-387" target="ILp8-n_kelNuU-kEh7t1-384" edge="1">
          <mxGeometry relative="1" as="geometry" />
        </mxCell>
        <mxCell id="ILp8-n_kelNuU-kEh7t1-407" style="edgeStyle=orthogonalEdgeStyle;rounded=0;orthogonalLoop=1;jettySize=auto;html=1;entryX=1;entryY=0.75;entryDx=0;entryDy=0;endArrow=none;startFill=0;" parent="ILp8-n_kelNuU-kEh7t1-484" source="ILp8-n_kelNuU-kEh7t1-389" target="ILp8-n_kelNuU-kEh7t1-384" edge="1">
          <mxGeometry relative="1" as="geometry" />
        </mxCell>
        <mxCell id="ILp8-n_kelNuU-kEh7t1-408" style="edgeStyle=orthogonalEdgeStyle;rounded=0;orthogonalLoop=1;jettySize=auto;html=1;entryX=0.946;entryY=1;entryDx=0;entryDy=0;entryPerimeter=0;endArrow=none;startFill=0;" parent="ILp8-n_kelNuU-kEh7t1-484" source="ILp8-n_kelNuU-kEh7t1-391" target="ILp8-n_kelNuU-kEh7t1-384" edge="1">
          <mxGeometry relative="1" as="geometry">
            <mxPoint x="170" y="120" as="targetPoint" />
          </mxGeometry>
        </mxCell>
        <mxCell id="ILp8-n_kelNuU-kEh7t1-409" style="edgeStyle=orthogonalEdgeStyle;rounded=0;orthogonalLoop=1;jettySize=auto;html=1;entryX=0.837;entryY=0.99;entryDx=0;entryDy=0;entryPerimeter=0;endArrow=none;startFill=0;" parent="ILp8-n_kelNuU-kEh7t1-484" source="ILp8-n_kelNuU-kEh7t1-393" target="ILp8-n_kelNuU-kEh7t1-384" edge="1">
          <mxGeometry relative="1" as="geometry" />
        </mxCell>
        <mxCell id="ILp8-n_kelNuU-kEh7t1-410" style="edgeStyle=orthogonalEdgeStyle;rounded=0;orthogonalLoop=1;jettySize=auto;html=1;entryX=0.75;entryY=1;entryDx=0;entryDy=0;endArrow=none;startFill=0;" parent="ILp8-n_kelNuU-kEh7t1-484" source="ILp8-n_kelNuU-kEh7t1-395" target="ILp8-n_kelNuU-kEh7t1-384" edge="1">
          <mxGeometry relative="1" as="geometry" />
        </mxCell>
        <mxCell id="ILp8-n_kelNuU-kEh7t1-411" style="edgeStyle=orthogonalEdgeStyle;rounded=0;orthogonalLoop=1;jettySize=auto;html=1;entryX=0.66;entryY=1.001;entryDx=0;entryDy=0;entryPerimeter=0;endArrow=none;startFill=0;" parent="ILp8-n_kelNuU-kEh7t1-484" source="ILp8-n_kelNuU-kEh7t1-397" target="ILp8-n_kelNuU-kEh7t1-384" edge="1">
          <mxGeometry relative="1" as="geometry" />
        </mxCell>
        <mxCell id="ILp8-n_kelNuU-kEh7t1-412" style="edgeStyle=orthogonalEdgeStyle;rounded=0;orthogonalLoop=1;jettySize=auto;html=1;entryX=0.574;entryY=1.012;entryDx=0;entryDy=0;entryPerimeter=0;endArrow=none;startFill=0;" parent="ILp8-n_kelNuU-kEh7t1-484" source="ILp8-n_kelNuU-kEh7t1-415" target="ILp8-n_kelNuU-kEh7t1-384" edge="1">
          <mxGeometry relative="1" as="geometry" />
        </mxCell>
        <mxCell id="ILp8-n_kelNuU-kEh7t1-413" style="edgeStyle=orthogonalEdgeStyle;rounded=0;orthogonalLoop=1;jettySize=auto;html=1;entryX=0.5;entryY=1;entryDx=0;entryDy=0;endArrow=none;startFill=0;" parent="ILp8-n_kelNuU-kEh7t1-484" source="ILp8-n_kelNuU-kEh7t1-400" target="ILp8-n_kelNuU-kEh7t1-384" edge="1">
          <mxGeometry relative="1" as="geometry" />
        </mxCell>
        <mxCell id="ILp8-n_kelNuU-kEh7t1-414" value="" style="group" parent="ILp8-n_kelNuU-kEh7t1-484" vertex="1" connectable="0">
          <mxGeometry x="190" y="140" width="160" height="30" as="geometry" />
        </mxCell>
        <mxCell id="ILp8-n_kelNuU-kEh7t1-415" value="" style="ellipse;whiteSpace=wrap;html=1;aspect=fixed;fillColor=#FFFFFF;" parent="ILp8-n_kelNuU-kEh7t1-414" vertex="1">
          <mxGeometry y="10" width="10" height="10" as="geometry" />
        </mxCell>
        <mxCell id="ILp8-n_kelNuU-kEh7t1-416" value="&lt;span style=&quot;text-wrap-mode: wrap;&quot;&gt;LocalidadeConcluida&lt;/span&gt;" style="text;html=1;align=left;verticalAlign=middle;resizable=0;points=[];autosize=1;strokeColor=none;fillColor=none;" parent="ILp8-n_kelNuU-kEh7t1-414" vertex="1">
          <mxGeometry x="20" width="130" height="30" as="geometry" />
        </mxCell>
        <mxCell id="ILp8-n_kelNuU-kEh7t1-417" value="" style="group" parent="ILp8-n_kelNuU-kEh7t1-484" vertex="1" connectable="0">
          <mxGeometry x="190" y="200" width="200" height="50" as="geometry" />
        </mxCell>
        <mxCell id="ILp8-n_kelNuU-kEh7t1-418" value="" style="ellipse;whiteSpace=wrap;html=1;aspect=fixed;fillColor=#FFFFFF;" parent="ILp8-n_kelNuU-kEh7t1-417" vertex="1">
          <mxGeometry y="10" width="10" height="10" as="geometry" />
        </mxCell>
        <mxCell id="ILp8-n_kelNuU-kEh7t1-419" value="&lt;span style=&quot;text-wrap-mode: wrap;&quot;&gt;NumeroDeOutros&lt;/span&gt;" style="text;html=1;align=left;verticalAlign=middle;resizable=0;points=[];autosize=1;strokeColor=none;fillColor=none;" parent="ILp8-n_kelNuU-kEh7t1-417" vertex="1">
          <mxGeometry x="20" width="120" height="30" as="geometry" />
        </mxCell>
        <mxCell id="ILp8-n_kelNuU-kEh7t1-420" value="" style="group" parent="ILp8-n_kelNuU-kEh7t1-417" vertex="1" connectable="0">
          <mxGeometry y="20" width="200" height="30" as="geometry" />
        </mxCell>
        <mxCell id="ILp8-n_kelNuU-kEh7t1-421" value="" style="ellipse;whiteSpace=wrap;html=1;aspect=fixed;fillColor=#FFFFFF;" parent="ILp8-n_kelNuU-kEh7t1-420" vertex="1">
          <mxGeometry y="10" width="10" height="10" as="geometry" />
        </mxCell>
        <mxCell id="ILp8-n_kelNuU-kEh7t1-422" value="&lt;span style=&quot;text-wrap-mode: wrap;&quot;&gt;ImoveisTrabalhadosPositivos&lt;/span&gt;" style="text;html=1;align=left;verticalAlign=middle;resizable=0;points=[];autosize=1;strokeColor=none;fillColor=none;" parent="ILp8-n_kelNuU-kEh7t1-420" vertex="1">
          <mxGeometry x="20" width="180" height="30" as="geometry" />
        </mxCell>
        <mxCell id="ILp8-n_kelNuU-kEh7t1-423" value="" style="group" parent="ILp8-n_kelNuU-kEh7t1-484" vertex="1" connectable="0">
          <mxGeometry x="190" y="240" width="200" height="50" as="geometry" />
        </mxCell>
        <mxCell id="ILp8-n_kelNuU-kEh7t1-424" value="" style="ellipse;whiteSpace=wrap;html=1;aspect=fixed;fillColor=#FFFFFF;" parent="ILp8-n_kelNuU-kEh7t1-423" vertex="1">
          <mxGeometry y="10" width="10" height="10" as="geometry" />
        </mxCell>
        <mxCell id="ILp8-n_kelNuU-kEh7t1-425" value="&lt;span style=&quot;text-wrap-mode: wrap;&quot;&gt;ImoveisPendentesPositivos&lt;/span&gt;" style="text;html=1;align=left;verticalAlign=middle;resizable=0;points=[];autosize=1;strokeColor=none;fillColor=none;" parent="ILp8-n_kelNuU-kEh7t1-423" vertex="1">
          <mxGeometry x="20" width="170" height="30" as="geometry" />
        </mxCell>
        <mxCell id="ILp8-n_kelNuU-kEh7t1-426" value="" style="group" parent="ILp8-n_kelNuU-kEh7t1-423" vertex="1" connectable="0">
          <mxGeometry y="20" width="200" height="30" as="geometry" />
        </mxCell>
        <mxCell id="ILp8-n_kelNuU-kEh7t1-427" value="" style="ellipse;whiteSpace=wrap;html=1;aspect=fixed;fillColor=#FFFFFF;" parent="ILp8-n_kelNuU-kEh7t1-426" vertex="1">
          <mxGeometry y="10" width="10" height="10" as="geometry" />
        </mxCell>
        <mxCell id="ILp8-n_kelNuU-kEh7t1-428" value="&lt;span style=&quot;text-wrap-mode: wrap;&quot;&gt;AnexosTrabalhadosPositivos&lt;/span&gt;" style="text;html=1;align=left;verticalAlign=middle;resizable=0;points=[];autosize=1;strokeColor=none;fillColor=none;" parent="ILp8-n_kelNuU-kEh7t1-426" vertex="1">
          <mxGeometry x="20" width="180" height="30" as="geometry" />
        </mxCell>
        <mxCell id="ILp8-n_kelNuU-kEh7t1-429" value="" style="group" parent="ILp8-n_kelNuU-kEh7t1-484" vertex="1" connectable="0">
          <mxGeometry x="190" y="280" width="210" height="50" as="geometry" />
        </mxCell>
        <mxCell id="ILp8-n_kelNuU-kEh7t1-430" value="" style="ellipse;whiteSpace=wrap;html=1;aspect=fixed;fillColor=#FFFFFF;" parent="ILp8-n_kelNuU-kEh7t1-429" vertex="1">
          <mxGeometry y="10" width="10" height="10" as="geometry" />
        </mxCell>
        <mxCell id="ILp8-n_kelNuU-kEh7t1-431" value="&lt;span style=&quot;text-wrap-mode: wrap;&quot;&gt;UnidadesDomiciliaresPositivos&lt;/span&gt;" style="text;html=1;align=left;verticalAlign=middle;resizable=0;points=[];autosize=1;strokeColor=none;fillColor=none;" parent="ILp8-n_kelNuU-kEh7t1-429" vertex="1">
          <mxGeometry x="20" width="190" height="30" as="geometry" />
        </mxCell>
        <mxCell id="ILp8-n_kelNuU-kEh7t1-432" value="" style="group" parent="ILp8-n_kelNuU-kEh7t1-429" vertex="1" connectable="0">
          <mxGeometry y="20" width="200" height="30" as="geometry" />
        </mxCell>
        <mxCell id="ILp8-n_kelNuU-kEh7t1-433" value="" style="ellipse;whiteSpace=wrap;html=1;aspect=fixed;fillColor=#FFFFFF;" parent="ILp8-n_kelNuU-kEh7t1-432" vertex="1">
          <mxGeometry y="10" width="10" height="10" as="geometry" />
        </mxCell>
        <mxCell id="ILp8-n_kelNuU-kEh7t1-434" value="&lt;span style=&quot;text-wrap-mode: wrap;&quot;&gt;TriatomineosCapturadosIntra&lt;/span&gt;" style="text;html=1;align=left;verticalAlign=middle;resizable=0;points=[];autosize=1;strokeColor=none;fillColor=none;" parent="ILp8-n_kelNuU-kEh7t1-432" vertex="1">
          <mxGeometry x="20" width="180" height="30" as="geometry" />
        </mxCell>
        <mxCell id="ILp8-n_kelNuU-kEh7t1-435" value="" style="group" parent="ILp8-n_kelNuU-kEh7t1-484" vertex="1" connectable="0">
          <mxGeometry x="190" y="320" width="200" height="30" as="geometry" />
        </mxCell>
        <mxCell id="ILp8-n_kelNuU-kEh7t1-436" value="" style="ellipse;whiteSpace=wrap;html=1;aspect=fixed;fillColor=#FFFFFF;" parent="ILp8-n_kelNuU-kEh7t1-435" vertex="1">
          <mxGeometry y="10" width="10" height="10" as="geometry" />
        </mxCell>
        <mxCell id="ILp8-n_kelNuU-kEh7t1-437" value="&lt;span style=&quot;text-wrap-mode: wrap;&quot;&gt;TriatomineosCapturadosPeri&lt;/span&gt;" style="text;html=1;align=left;verticalAlign=middle;resizable=0;points=[];autosize=1;strokeColor=none;fillColor=none;" parent="ILp8-n_kelNuU-kEh7t1-435" vertex="1">
          <mxGeometry x="20" width="180" height="30" as="geometry" />
        </mxCell>
        <mxCell id="ILp8-n_kelNuU-kEh7t1-438" style="edgeStyle=orthogonalEdgeStyle;rounded=0;orthogonalLoop=1;jettySize=auto;html=1;entryX=0.393;entryY=0.991;entryDx=0;entryDy=0;entryPerimeter=0;endArrow=none;startFill=0;" parent="ILp8-n_kelNuU-kEh7t1-484" source="ILp8-n_kelNuU-kEh7t1-403" target="ILp8-n_kelNuU-kEh7t1-384" edge="1">
          <mxGeometry relative="1" as="geometry" />
        </mxCell>
        <mxCell id="ILp8-n_kelNuU-kEh7t1-439" style="edgeStyle=orthogonalEdgeStyle;rounded=0;orthogonalLoop=1;jettySize=auto;html=1;entryX=0.303;entryY=0.991;entryDx=0;entryDy=0;entryPerimeter=0;endArrow=none;startFill=0;" parent="ILp8-n_kelNuU-kEh7t1-484" source="ILp8-n_kelNuU-kEh7t1-418" target="ILp8-n_kelNuU-kEh7t1-384" edge="1">
          <mxGeometry relative="1" as="geometry" />
        </mxCell>
        <mxCell id="ILp8-n_kelNuU-kEh7t1-440" style="edgeStyle=orthogonalEdgeStyle;rounded=0;orthogonalLoop=1;jettySize=auto;html=1;entryX=0.213;entryY=0.991;entryDx=0;entryDy=0;entryPerimeter=0;endArrow=none;startFill=0;" parent="ILp8-n_kelNuU-kEh7t1-484" source="ILp8-n_kelNuU-kEh7t1-421" target="ILp8-n_kelNuU-kEh7t1-384" edge="1">
          <mxGeometry relative="1" as="geometry" />
        </mxCell>
        <mxCell id="ILp8-n_kelNuU-kEh7t1-441" style="edgeStyle=orthogonalEdgeStyle;rounded=0;orthogonalLoop=1;jettySize=auto;html=1;entryX=0.123;entryY=0.991;entryDx=0;entryDy=0;entryPerimeter=0;endArrow=none;startFill=0;" parent="ILp8-n_kelNuU-kEh7t1-484" source="ILp8-n_kelNuU-kEh7t1-424" target="ILp8-n_kelNuU-kEh7t1-384" edge="1">
          <mxGeometry relative="1" as="geometry" />
        </mxCell>
        <mxCell id="ILp8-n_kelNuU-kEh7t1-442" style="edgeStyle=orthogonalEdgeStyle;rounded=0;orthogonalLoop=1;jettySize=auto;html=1;entryX=0;entryY=0.75;entryDx=0;entryDy=0;endArrow=none;startFill=0;" parent="ILp8-n_kelNuU-kEh7t1-484" source="ILp8-n_kelNuU-kEh7t1-427" target="ILp8-n_kelNuU-kEh7t1-384" edge="1">
          <mxGeometry relative="1" as="geometry" />
        </mxCell>
        <mxCell id="ILp8-n_kelNuU-kEh7t1-443" style="edgeStyle=orthogonalEdgeStyle;rounded=0;orthogonalLoop=1;jettySize=auto;html=1;entryX=0;entryY=0.583;entryDx=0;entryDy=0;entryPerimeter=0;endArrow=none;startFill=0;" parent="ILp8-n_kelNuU-kEh7t1-484" source="ILp8-n_kelNuU-kEh7t1-430" target="ILp8-n_kelNuU-kEh7t1-384" edge="1">
          <mxGeometry relative="1" as="geometry" />
        </mxCell>
        <mxCell id="ILp8-n_kelNuU-kEh7t1-444" style="edgeStyle=orthogonalEdgeStyle;rounded=0;orthogonalLoop=1;jettySize=auto;html=1;entryX=0;entryY=0.417;entryDx=0;entryDy=0;entryPerimeter=0;endArrow=none;startFill=0;" parent="ILp8-n_kelNuU-kEh7t1-484" source="ILp8-n_kelNuU-kEh7t1-433" target="ILp8-n_kelNuU-kEh7t1-384" edge="1">
          <mxGeometry relative="1" as="geometry" />
        </mxCell>
        <mxCell id="ILp8-n_kelNuU-kEh7t1-445" style="edgeStyle=orthogonalEdgeStyle;rounded=0;orthogonalLoop=1;jettySize=auto;html=1;entryX=0;entryY=0.25;entryDx=0;entryDy=0;endArrow=none;startFill=0;" parent="ILp8-n_kelNuU-kEh7t1-484" source="ILp8-n_kelNuU-kEh7t1-436" target="ILp8-n_kelNuU-kEh7t1-384" edge="1">
          <mxGeometry relative="1" as="geometry" />
        </mxCell>
        <mxCell id="ILp8-n_kelNuU-kEh7t1-468" value="" style="group" parent="ILp8-n_kelNuU-kEh7t1-484" vertex="1" connectable="0">
          <mxGeometry x="190" y="340" width="200" height="30" as="geometry" />
        </mxCell>
        <mxCell id="ILp8-n_kelNuU-kEh7t1-469" value="" style="ellipse;whiteSpace=wrap;html=1;aspect=fixed;fillColor=#FFFFFF;" parent="ILp8-n_kelNuU-kEh7t1-468" vertex="1">
          <mxGeometry y="10" width="10" height="10" as="geometry" />
        </mxCell>
        <mxCell id="ILp8-n_kelNuU-kEh7t1-470" value="&lt;span style=&quot;text-wrap-mode: wrap;&quot;&gt;ImoveisTrabalhadosNegativos&lt;/span&gt;" style="text;html=1;align=left;verticalAlign=middle;resizable=0;points=[];autosize=1;strokeColor=none;fillColor=none;" parent="ILp8-n_kelNuU-kEh7t1-468" vertex="1">
          <mxGeometry x="20" width="180" height="30" as="geometry" />
        </mxCell>
        <mxCell id="ILp8-n_kelNuU-kEh7t1-471" value="" style="group" parent="ILp8-n_kelNuU-kEh7t1-484" vertex="1" connectable="0">
          <mxGeometry x="190" y="360" width="200" height="30" as="geometry" />
        </mxCell>
        <mxCell id="ILp8-n_kelNuU-kEh7t1-472" value="" style="ellipse;whiteSpace=wrap;html=1;aspect=fixed;fillColor=#FFFFFF;" parent="ILp8-n_kelNuU-kEh7t1-471" vertex="1">
          <mxGeometry y="10" width="10" height="10" as="geometry" />
        </mxCell>
        <mxCell id="ILp8-n_kelNuU-kEh7t1-473" value="&lt;span style=&quot;text-wrap-mode: wrap;&quot;&gt;ImoveisPendentesNegativos&lt;/span&gt;" style="text;html=1;align=left;verticalAlign=middle;resizable=0;points=[];autosize=1;strokeColor=none;fillColor=none;" parent="ILp8-n_kelNuU-kEh7t1-471" vertex="1">
          <mxGeometry x="20" width="180" height="30" as="geometry" />
        </mxCell>
        <mxCell id="ILp8-n_kelNuU-kEh7t1-474" value="" style="group" parent="ILp8-n_kelNuU-kEh7t1-484" vertex="1" connectable="0">
          <mxGeometry x="190" y="380" width="200" height="30" as="geometry" />
        </mxCell>
        <mxCell id="ILp8-n_kelNuU-kEh7t1-475" value="" style="ellipse;whiteSpace=wrap;html=1;aspect=fixed;fillColor=#FFFFFF;" parent="ILp8-n_kelNuU-kEh7t1-474" vertex="1">
          <mxGeometry y="10" width="10" height="10" as="geometry" />
        </mxCell>
        <mxCell id="ILp8-n_kelNuU-kEh7t1-476" value="&lt;span style=&quot;text-wrap-mode: wrap;&quot;&gt;AnexosTrabalhadosNegativos&lt;/span&gt;" style="text;html=1;align=left;verticalAlign=middle;resizable=0;points=[];autosize=1;strokeColor=none;fillColor=none;" parent="ILp8-n_kelNuU-kEh7t1-474" vertex="1">
          <mxGeometry x="20" width="180" height="30" as="geometry" />
        </mxCell>
        <mxCell id="ILp8-n_kelNuU-kEh7t1-477" value="" style="group" parent="ILp8-n_kelNuU-kEh7t1-484" vertex="1" connectable="0">
          <mxGeometry x="190" y="400" width="210" height="30" as="geometry" />
        </mxCell>
        <mxCell id="ILp8-n_kelNuU-kEh7t1-478" value="" style="ellipse;whiteSpace=wrap;html=1;aspect=fixed;fillColor=#FFFFFF;" parent="ILp8-n_kelNuU-kEh7t1-477" vertex="1">
          <mxGeometry y="10" width="10" height="10" as="geometry" />
        </mxCell>
        <mxCell id="ILp8-n_kelNuU-kEh7t1-479" value="&lt;span style=&quot;text-wrap-mode: wrap;&quot;&gt;UnidadesDomiciliaresNegativos&lt;/span&gt;" style="text;html=1;align=left;verticalAlign=middle;resizable=0;points=[];autosize=1;strokeColor=none;fillColor=none;" parent="ILp8-n_kelNuU-kEh7t1-477" vertex="1">
          <mxGeometry x="20" width="190" height="30" as="geometry" />
        </mxCell>
        <mxCell id="ILp8-n_kelNuU-kEh7t1-480" style="edgeStyle=orthogonalEdgeStyle;rounded=0;orthogonalLoop=1;jettySize=auto;html=1;entryX=0;entryY=0.25;entryDx=0;entryDy=0;endArrow=none;startFill=0;" parent="ILp8-n_kelNuU-kEh7t1-484" source="ILp8-n_kelNuU-kEh7t1-469" target="ILp8-n_kelNuU-kEh7t1-384" edge="1">
          <mxGeometry relative="1" as="geometry" />
        </mxCell>
        <mxCell id="ILp8-n_kelNuU-kEh7t1-481" style="edgeStyle=orthogonalEdgeStyle;rounded=0;orthogonalLoop=1;jettySize=auto;html=1;entryX=0;entryY=0.5;entryDx=0;entryDy=0;endArrow=none;startFill=0;" parent="ILp8-n_kelNuU-kEh7t1-484" source="ILp8-n_kelNuU-kEh7t1-472" target="ILp8-n_kelNuU-kEh7t1-384" edge="1">
          <mxGeometry relative="1" as="geometry" />
        </mxCell>
        <mxCell id="ILp8-n_kelNuU-kEh7t1-482" style="edgeStyle=orthogonalEdgeStyle;rounded=0;orthogonalLoop=1;jettySize=auto;html=1;entryX=-0.003;entryY=0.663;entryDx=0;entryDy=0;entryPerimeter=0;endArrow=none;startFill=0;" parent="ILp8-n_kelNuU-kEh7t1-484" source="ILp8-n_kelNuU-kEh7t1-475" target="ILp8-n_kelNuU-kEh7t1-384" edge="1">
          <mxGeometry relative="1" as="geometry">
            <mxPoint x="-20" y="109.99999999999977" as="targetPoint" />
          </mxGeometry>
        </mxCell>
        <mxCell id="ILp8-n_kelNuU-kEh7t1-483" style="edgeStyle=orthogonalEdgeStyle;rounded=0;orthogonalLoop=1;jettySize=auto;html=1;entryX=-0.006;entryY=0.329;entryDx=0;entryDy=0;entryPerimeter=0;endArrow=none;startFill=0;" parent="ILp8-n_kelNuU-kEh7t1-484" source="ILp8-n_kelNuU-kEh7t1-478" target="ILp8-n_kelNuU-kEh7t1-384" edge="1">
          <mxGeometry relative="1" as="geometry">
            <mxPoint x="-10" y="60" as="targetPoint" />
          </mxGeometry>
        </mxCell>
        <mxCell id="ILp8-n_kelNuU-kEh7t1-487" style="edgeStyle=orthogonalEdgeStyle;rounded=0;orthogonalLoop=1;jettySize=auto;html=1;entryX=0.5;entryY=0;entryDx=0;entryDy=0;endArrow=none;startFill=0;" parent="1" source="ILp8-n_kelNuU-kEh7t1-485" target="ILp8-n_kelNuU-kEh7t1-129" edge="1">
          <mxGeometry relative="1" as="geometry">
            <Array as="points">
              <mxPoint x="480" y="445" />
              <mxPoint x="480" y="320" />
              <mxPoint x="110" y="320" />
              <mxPoint x="110" y="405" />
            </Array>
          </mxGeometry>
        </mxCell>
        <mxCell id="ILp8-n_kelNuU-kEh7t1-488" style="edgeStyle=orthogonalEdgeStyle;rounded=0;orthogonalLoop=1;jettySize=auto;html=1;entryX=0;entryY=0.5;entryDx=0;entryDy=0;endArrow=none;startFill=0;" parent="1" source="ILp8-n_kelNuU-kEh7t1-485" target="ILp8-n_kelNuU-kEh7t1-197" edge="1">
          <mxGeometry relative="1" as="geometry" />
        </mxCell>
        <mxCell id="ILp8-n_kelNuU-kEh7t1-485" value="Contem" style="rhombus;whiteSpace=wrap;html=1;" parent="1" vertex="1">
          <mxGeometry x="510" y="410" width="80" height="70" as="geometry" />
        </mxCell>
        <mxCell id="ILp8-n_kelNuU-kEh7t1-489" style="edgeStyle=orthogonalEdgeStyle;rounded=0;orthogonalLoop=1;jettySize=auto;html=1;entryX=0;entryY=0.5;entryDx=0;entryDy=0;endArrow=none;startFill=0;" parent="1" source="ILp8-n_kelNuU-kEh7t1-486" target="ILp8-n_kelNuU-kEh7t1-260" edge="1">
          <mxGeometry relative="1" as="geometry" />
        </mxCell>
        <mxCell id="ILp8-n_kelNuU-kEh7t1-490" style="edgeStyle=orthogonalEdgeStyle;rounded=0;orthogonalLoop=1;jettySize=auto;html=1;entryX=0.25;entryY=0;entryDx=0;entryDy=0;endArrow=none;startFill=0;" parent="1" source="ILp8-n_kelNuU-kEh7t1-486" target="ILp8-n_kelNuU-kEh7t1-129" edge="1">
          <mxGeometry relative="1" as="geometry">
            <Array as="points">
              <mxPoint x="450" y="695" />
              <mxPoint x="450" y="350" />
              <mxPoint x="160" y="350" />
              <mxPoint x="160" y="405" />
            </Array>
          </mxGeometry>
        </mxCell>
        <mxCell id="ILp8-n_kelNuU-kEh7t1-486" value="Contem" style="rhombus;whiteSpace=wrap;html=1;" parent="1" vertex="1">
          <mxGeometry x="520" y="660" width="80" height="70" as="geometry" />
        </mxCell>
        <mxCell id="ILp8-n_kelNuU-kEh7t1-493" value="Contem" style="rhombus;whiteSpace=wrap;html=1;" parent="1" vertex="1">
          <mxGeometry x="20" y="270" width="80" height="70" as="geometry" />
        </mxCell>
        <mxCell id="ILp8-n_kelNuU-kEh7t1-495" style="edgeStyle=orthogonalEdgeStyle;rounded=0;orthogonalLoop=1;jettySize=auto;html=1;entryX=0.102;entryY=0.004;entryDx=0;entryDy=0;entryPerimeter=0;endArrow=none;startFill=0;" parent="1" source="ILp8-n_kelNuU-kEh7t1-493" target="ILp8-n_kelNuU-kEh7t1-129" edge="1">
          <mxGeometry relative="1" as="geometry" />
        </mxCell>
        <mxCell id="ILp8-n_kelNuU-kEh7t1-500" style="edgeStyle=orthogonalEdgeStyle;rounded=0;orthogonalLoop=1;jettySize=auto;html=1;endArrow=none;startFill=0;entryX=0.131;entryY=1.004;entryDx=0;entryDy=0;entryPerimeter=0;" parent="1" source="ILp8-n_kelNuU-kEh7t1-499" target="ILp8-n_kelNuU-kEh7t1-322" edge="1">
          <mxGeometry relative="1" as="geometry">
            <mxPoint x="116" y="1010" as="targetPoint" />
            <Array as="points">
              <mxPoint x="160" y="1140" />
              <mxPoint x="116" y="1140" />
            </Array>
          </mxGeometry>
        </mxCell>
        <mxCell id="ILp8-n_kelNuU-kEh7t1-501" style="edgeStyle=orthogonalEdgeStyle;rounded=0;orthogonalLoop=1;jettySize=auto;html=1;endArrow=none;startFill=0;" parent="1" source="ILp8-n_kelNuU-kEh7t1-499" target="ILp8-n_kelNuU-kEh7t1-384" edge="1">
          <mxGeometry relative="1" as="geometry" />
        </mxCell>
        <mxCell id="ILp8-n_kelNuU-kEh7t1-499" value="Contem" style="rhombus;whiteSpace=wrap;html=1;" parent="1" vertex="1">
          <mxGeometry x="120" y="1180" width="80" height="70" as="geometry" />
        </mxCell>
        <mxCell id="ILp8-n_kelNuU-kEh7t1-502" value="(1,1)" style="text;html=1;align=center;verticalAlign=middle;resizable=0;points=[];autosize=1;strokeColor=none;fillColor=none;" parent="1" vertex="1">
          <mxGeometry x="60" y="130" width="50" height="30" as="geometry" />
        </mxCell>
        <mxCell id="ILp8-n_kelNuU-kEh7t1-503" value="(0,n)" style="text;html=1;align=center;verticalAlign=middle;resizable=0;points=[];autosize=1;strokeColor=none;fillColor=none;" parent="1" vertex="1">
          <mxGeometry x="50" y="380" width="50" height="30" as="geometry" />
        </mxCell>
        <mxCell id="ILp8-n_kelNuU-kEh7t1-506" value="(1,1)" style="text;html=1;align=center;verticalAlign=middle;resizable=0;points=[];autosize=1;strokeColor=none;fillColor=none;" parent="1" vertex="1">
          <mxGeometry x="100" y="380" width="50" height="30" as="geometry" />
        </mxCell>
        <mxCell id="ILp8-n_kelNuU-kEh7t1-507" value="(0,1)" style="text;html=1;align=center;verticalAlign=middle;resizable=0;points=[];autosize=1;strokeColor=none;fillColor=none;" parent="1" vertex="1">
          <mxGeometry x="160" y="380" width="50" height="30" as="geometry" />
        </mxCell>
        <mxCell id="ILp8-n_kelNuU-kEh7t1-508" value="(0,1)" style="text;html=1;align=center;verticalAlign=middle;resizable=0;points=[];autosize=1;strokeColor=none;fillColor=none;" parent="1" vertex="1">
          <mxGeometry x="620" y="420" width="50" height="30" as="geometry" />
        </mxCell>
        <mxCell id="ILp8-n_kelNuU-kEh7t1-509" value="(1,1)" style="text;html=1;align=center;verticalAlign=middle;resizable=0;points=[];autosize=1;strokeColor=none;fillColor=none;" parent="1" vertex="1">
          <mxGeometry x="650" y="670" width="50" height="30" as="geometry" />
        </mxCell>
        <mxCell id="ILp8-n_kelNuU-kEh7t1-510" value="(1,1)" style="text;html=1;align=center;verticalAlign=middle;resizable=0;points=[];autosize=1;strokeColor=none;fillColor=none;" parent="1" vertex="1">
          <mxGeometry x="70" y="1005" width="50" height="30" as="geometry" />
        </mxCell>
        <mxCell id="ILp8-n_kelNuU-kEh7t1-511" value="(1,n)" style="text;html=1;align=center;verticalAlign=middle;resizable=0;points=[];autosize=1;strokeColor=none;fillColor=none;" parent="1" vertex="1">
          <mxGeometry x="335" y="1268" width="50" height="30" as="geometry" />
        </mxCell>
        <mxCell id="-h6WGbTKZ45hAwRw8tWW-17" value="" style="ellipse;whiteSpace=wrap;html=1;aspect=fixed;fillColor=#FFFFFF;" parent="1" vertex="1">
          <mxGeometry x="860" y="520" width="10" height="10" as="geometry" />
        </mxCell>
        <mxCell id="-h6WGbTKZ45hAwRw8tWW-18" value="&lt;span style=&quot;text-wrap-mode: wrap;&quot;&gt;DataDeRegistro&lt;/span&gt;" style="text;html=1;align=left;verticalAlign=middle;resizable=0;points=[];autosize=1;strokeColor=none;fillColor=none;" parent="1" vertex="1">
          <mxGeometry x="880" y="510" width="110" height="30" as="geometry" />
        </mxCell>
        <mxCell id="-h6WGbTKZ45hAwRw8tWW-19" value="" style="ellipse;whiteSpace=wrap;html=1;aspect=fixed;fillColor=#FFFFFF;" parent="1" vertex="1">
          <mxGeometry x="860" y="540" width="10" height="10" as="geometry" />
        </mxCell>
        <mxCell id="-h6WGbTKZ45hAwRw8tWW-20" value="&lt;span style=&quot;text-wrap-mode: wrap;&quot;&gt;DataDeAtualizaÃ§Ã£o&lt;/span&gt;" style="text;html=1;align=left;verticalAlign=middle;resizable=0;points=[];autosize=1;strokeColor=none;fillColor=none;" parent="1" vertex="1">
          <mxGeometry x="880" y="530" width="130" height="30" as="geometry" />
        </mxCell>
        <mxCell id="-h6WGbTKZ45hAwRw8tWW-21" value="" style="ellipse;whiteSpace=wrap;html=1;aspect=fixed;fillColor=#FFFFFF;" parent="1" vertex="1">
          <mxGeometry x="860" y="560" width="10" height="10" as="geometry" />
        </mxCell>
        <mxCell id="-h6WGbTKZ45hAwRw8tWW-22" value="&lt;span style=&quot;text-wrap-mode: wrap;&quot;&gt;CriadoPor&lt;/span&gt;" style="text;html=1;align=left;verticalAlign=middle;resizable=0;points=[];autosize=1;strokeColor=none;fillColor=none;" parent="1" vertex="1">
          <mxGeometry x="880" y="550" width="80" height="30" as="geometry" />
        </mxCell>
        <mxCell id="-h6WGbTKZ45hAwRw8tWW-23" value="" style="ellipse;whiteSpace=wrap;html=1;aspect=fixed;fillColor=#FFFFFF;" parent="1" vertex="1">
          <mxGeometry x="860" y="580" width="10" height="10" as="geometry" />
        </mxCell>
        <mxCell id="-h6WGbTKZ45hAwRw8tWW-24" value="&lt;span style=&quot;text-wrap-mode: wrap;&quot;&gt;AtualizadoPor&lt;/span&gt;" style="text;html=1;align=left;verticalAlign=middle;resizable=0;points=[];autosize=1;strokeColor=none;fillColor=none;" parent="1" vertex="1">
          <mxGeometry x="880" y="570" width="100" height="30" as="geometry" />
        </mxCell>
        <mxCell id="-h6WGbTKZ45hAwRw8tWW-33" value="" style="ellipse;whiteSpace=wrap;html=1;aspect=fixed;fillColor=#FFFFFF;" parent="1" vertex="1">
          <mxGeometry x="290" y="1050" width="10" height="10" as="geometry" />
        </mxCell>
        <mxCell id="-h6WGbTKZ45hAwRw8tWW-34" value="&lt;span style=&quot;text-wrap-mode: wrap;&quot;&gt;DataDeRegistro&lt;/span&gt;" style="text;html=1;align=left;verticalAlign=middle;resizable=0;points=[];autosize=1;strokeColor=none;fillColor=none;" parent="1" vertex="1">
          <mxGeometry x="310" y="1040" width="110" height="30" as="geometry" />
        </mxCell>
        <mxCell id="-h6WGbTKZ45hAwRw8tWW-35" value="" style="ellipse;whiteSpace=wrap;html=1;aspect=fixed;fillColor=#FFFFFF;" parent="1" vertex="1">
          <mxGeometry x="290" y="1070" width="10" height="10" as="geometry" />
        </mxCell>
        <mxCell id="-h6WGbTKZ45hAwRw8tWW-36" value="&lt;span style=&quot;text-wrap-mode: wrap;&quot;&gt;DataDeAtualizaÃ§Ã£o&lt;/span&gt;" style="text;html=1;align=left;verticalAlign=middle;resizable=0;points=[];autosize=1;strokeColor=none;fillColor=none;" parent="1" vertex="1">
          <mxGeometry x="310" y="1060" width="130" height="30" as="geometry" />
        </mxCell>
        <mxCell id="-h6WGbTKZ45hAwRw8tWW-37" value="" style="ellipse;whiteSpace=wrap;html=1;aspect=fixed;fillColor=#FFFFFF;" parent="1" vertex="1">
          <mxGeometry x="290" y="1090" width="10" height="10" as="geometry" />
        </mxCell>
        <mxCell id="-h6WGbTKZ45hAwRw8tWW-38" value="&lt;span style=&quot;text-wrap-mode: wrap;&quot;&gt;CriadoPor&lt;/span&gt;" style="text;html=1;align=left;verticalAlign=middle;resizable=0;points=[];autosize=1;strokeColor=none;fillColor=none;" parent="1" vertex="1">
          <mxGeometry x="310" y="1080" width="80" height="30" as="geometry" />
        </mxCell>
        <mxCell id="-h6WGbTKZ45hAwRw8tWW-39" value="" style="ellipse;whiteSpace=wrap;html=1;aspect=fixed;fillColor=#FFFFFF;" parent="1" vertex="1">
          <mxGeometry x="290" y="1110" width="10" height="10" as="geometry" />
        </mxCell>
        <mxCell id="-h6WGbTKZ45hAwRw8tWW-40" value="&lt;span style=&quot;text-wrap-mode: wrap;&quot;&gt;AtualizadoPor&lt;/span&gt;" style="text;html=1;align=left;verticalAlign=middle;resizable=0;points=[];autosize=1;strokeColor=none;fillColor=none;" parent="1" vertex="1">
          <mxGeometry x="310" y="1100" width="100" height="30" as="geometry" />
        </mxCell>
        <mxCell id="-h6WGbTKZ45hAwRw8tWW-81" style="edgeStyle=orthogonalEdgeStyle;rounded=0;orthogonalLoop=1;jettySize=auto;html=1;entryX=0;entryY=0.75;entryDx=0;entryDy=0;endArrow=none;startFill=0;" parent="1" source="-h6WGbTKZ45hAwRw8tWW-41" target="ILp8-n_kelNuU-kEh7t1-384" edge="1">
          <mxGeometry relative="1" as="geometry" />
        </mxCell>
        <mxCell id="-h6WGbTKZ45hAwRw8tWW-41" value="" style="ellipse;whiteSpace=wrap;html=1;aspect=fixed;fillColor=#FFFFFF;" parent="1" vertex="1">
          <mxGeometry x="470" y="1680" width="10" height="10" as="geometry" />
        </mxCell>
        <mxCell id="-h6WGbTKZ45hAwRw8tWW-42" value="&lt;span style=&quot;text-wrap-mode: wrap;&quot;&gt;DataDeRegistro&lt;/span&gt;" style="text;html=1;align=left;verticalAlign=middle;resizable=0;points=[];autosize=1;strokeColor=none;fillColor=none;" parent="1" vertex="1">
          <mxGeometry x="490" y="1670" width="110" height="30" as="geometry" />
        </mxCell>
        <mxCell id="-h6WGbTKZ45hAwRw8tWW-82" style="edgeStyle=orthogonalEdgeStyle;rounded=0;orthogonalLoop=1;jettySize=auto;html=1;entryX=0;entryY=0.5;entryDx=0;entryDy=0;endArrow=none;startFill=0;" parent="1" source="-h6WGbTKZ45hAwRw8tWW-43" target="ILp8-n_kelNuU-kEh7t1-384" edge="1">
          <mxGeometry relative="1" as="geometry">
            <mxPoint x="250" y="1330" as="targetPoint" />
          </mxGeometry>
        </mxCell>
        <mxCell id="-h6WGbTKZ45hAwRw8tWW-43" value="" style="ellipse;whiteSpace=wrap;html=1;aspect=fixed;fillColor=#FFFFFF;" parent="1" vertex="1">
          <mxGeometry x="470" y="1700" width="10" height="10" as="geometry" />
        </mxCell>
        <mxCell id="-h6WGbTKZ45hAwRw8tWW-44" value="&lt;span style=&quot;text-wrap-mode: wrap;&quot;&gt;DataDeAtualizaÃ§Ã£o&lt;/span&gt;" style="text;html=1;align=left;verticalAlign=middle;resizable=0;points=[];autosize=1;strokeColor=none;fillColor=none;" parent="1" vertex="1">
          <mxGeometry x="490" y="1690" width="130" height="30" as="geometry" />
        </mxCell>
        <mxCell id="-h6WGbTKZ45hAwRw8tWW-83" style="edgeStyle=orthogonalEdgeStyle;rounded=0;orthogonalLoop=1;jettySize=auto;html=1;entryX=0;entryY=0.25;entryDx=0;entryDy=0;endArrow=none;startFill=0;" parent="1" source="-h6WGbTKZ45hAwRw8tWW-45" target="ILp8-n_kelNuU-kEh7t1-384" edge="1">
          <mxGeometry relative="1" as="geometry" />
        </mxCell>
        <mxCell id="-h6WGbTKZ45hAwRw8tWW-45" value="" style="ellipse;whiteSpace=wrap;html=1;aspect=fixed;fillColor=#FFFFFF;" parent="1" vertex="1">
          <mxGeometry x="470" y="1720" width="10" height="10" as="geometry" />
        </mxCell>
        <mxCell id="-h6WGbTKZ45hAwRw8tWW-46" value="&lt;span style=&quot;text-wrap-mode: wrap;&quot;&gt;CriadoPor&lt;/span&gt;" style="text;html=1;align=left;verticalAlign=middle;resizable=0;points=[];autosize=1;strokeColor=none;fillColor=none;" parent="1" vertex="1">
          <mxGeometry x="490" y="1710" width="80" height="30" as="geometry" />
        </mxCell>
        <mxCell id="-h6WGbTKZ45hAwRw8tWW-84" style="edgeStyle=orthogonalEdgeStyle;rounded=0;orthogonalLoop=1;jettySize=auto;html=1;entryX=0;entryY=0.5;entryDx=0;entryDy=0;endArrow=none;startFill=0;" parent="1" source="-h6WGbTKZ45hAwRw8tWW-47" target="ILp8-n_kelNuU-kEh7t1-384" edge="1">
          <mxGeometry relative="1" as="geometry" />
        </mxCell>
        <mxCell id="-h6WGbTKZ45hAwRw8tWW-47" value="" style="ellipse;whiteSpace=wrap;html=1;aspect=fixed;fillColor=#FFFFFF;" parent="1" vertex="1">
          <mxGeometry x="470" y="1740" width="10" height="10" as="geometry" />
        </mxCell>
        <mxCell id="-h6WGbTKZ45hAwRw8tWW-48" value="&lt;span style=&quot;text-wrap-mode: wrap;&quot;&gt;AtualizadoPor&lt;/span&gt;" style="text;html=1;align=left;verticalAlign=middle;resizable=0;points=[];autosize=1;strokeColor=none;fillColor=none;" parent="1" vertex="1">
          <mxGeometry x="490" y="1730" width="100" height="30" as="geometry" />
        </mxCell>
        <mxCell id="-h6WGbTKZ45hAwRw8tWW-57" style="edgeStyle=orthogonalEdgeStyle;rounded=0;orthogonalLoop=1;jettySize=auto;html=1;entryX=0;entryY=0.667;entryDx=0;entryDy=0;entryPerimeter=0;endArrow=none;startFill=0;" parent="1" source="-h6WGbTKZ45hAwRw8tWW-49" target="ILp8-n_kelNuU-kEh7t1-129" edge="1">
          <mxGeometry relative="1" as="geometry" />
        </mxCell>
        <mxCell id="-h6WGbTKZ45hAwRw8tWW-58" style="edgeStyle=orthogonalEdgeStyle;rounded=0;orthogonalLoop=1;jettySize=auto;html=1;entryX=0;entryY=0.5;entryDx=0;entryDy=0;endArrow=none;startFill=0;" parent="1" source="-h6WGbTKZ45hAwRw8tWW-51" target="ILp8-n_kelNuU-kEh7t1-129" edge="1">
          <mxGeometry relative="1" as="geometry">
            <mxPoint x="50" y="430" as="targetPoint" />
          </mxGeometry>
        </mxCell>
        <mxCell id="-h6WGbTKZ45hAwRw8tWW-59" style="edgeStyle=orthogonalEdgeStyle;rounded=0;orthogonalLoop=1;jettySize=auto;html=1;entryX=0.003;entryY=0.33;entryDx=0;entryDy=0;entryPerimeter=0;endArrow=none;startFill=0;" parent="1" source="-h6WGbTKZ45hAwRw8tWW-53" target="ILp8-n_kelNuU-kEh7t1-129" edge="1">
          <mxGeometry relative="1" as="geometry" />
        </mxCell>
        <mxCell id="-h6WGbTKZ45hAwRw8tWW-60" style="edgeStyle=orthogonalEdgeStyle;rounded=0;orthogonalLoop=1;jettySize=auto;html=1;entryX=0.003;entryY=0.168;entryDx=0;entryDy=0;entryPerimeter=0;endArrow=none;startFill=0;" parent="1" source="-h6WGbTKZ45hAwRw8tWW-55" target="ILp8-n_kelNuU-kEh7t1-129" edge="1">
          <mxGeometry relative="1" as="geometry" />
        </mxCell>
        <mxCell id="-h6WGbTKZ45hAwRw8tWW-61" style="edgeStyle=orthogonalEdgeStyle;rounded=0;orthogonalLoop=1;jettySize=auto;html=1;entryX=0.006;entryY=0.672;entryDx=0;entryDy=0;entryPerimeter=0;endArrow=none;startFill=0;" parent="1" source="-h6WGbTKZ45hAwRw8tWW-25" target="ILp8-n_kelNuU-kEh7t1-260" edge="1">
          <mxGeometry relative="1" as="geometry" />
        </mxCell>
        <mxCell id="-h6WGbTKZ45hAwRw8tWW-62" style="edgeStyle=orthogonalEdgeStyle;rounded=0;orthogonalLoop=1;jettySize=auto;html=1;endArrow=none;startFill=0;entryX=0.068;entryY=0.992;entryDx=0;entryDy=0;entryPerimeter=0;" parent="1" source="-h6WGbTKZ45hAwRw8tWW-27" target="ILp8-n_kelNuU-kEh7t1-260" edge="1">
          <mxGeometry relative="1" as="geometry">
            <mxPoint x="640" y="710" as="targetPoint" />
          </mxGeometry>
        </mxCell>
        <mxCell id="-h6WGbTKZ45hAwRw8tWW-63" style="edgeStyle=orthogonalEdgeStyle;rounded=0;orthogonalLoop=1;jettySize=auto;html=1;entryX=0.168;entryY=0.992;entryDx=0;entryDy=0;entryPerimeter=0;endArrow=none;startFill=0;" parent="1" source="-h6WGbTKZ45hAwRw8tWW-29" target="ILp8-n_kelNuU-kEh7t1-260" edge="1">
          <mxGeometry relative="1" as="geometry" />
        </mxCell>
        <mxCell id="-h6WGbTKZ45hAwRw8tWW-64" style="edgeStyle=orthogonalEdgeStyle;rounded=0;orthogonalLoop=1;jettySize=auto;html=1;entryX=0.25;entryY=1;entryDx=0;entryDy=0;endArrow=none;startFill=0;" parent="1" source="-h6WGbTKZ45hAwRw8tWW-31" target="ILp8-n_kelNuU-kEh7t1-260" edge="1">
          <mxGeometry relative="1" as="geometry" />
        </mxCell>
        <mxCell id="-h6WGbTKZ45hAwRw8tWW-65" style="edgeStyle=orthogonalEdgeStyle;rounded=0;orthogonalLoop=1;jettySize=auto;html=1;entryX=0.617;entryY=0.997;entryDx=0;entryDy=0;entryPerimeter=0;endArrow=none;startFill=0;" parent="1" source="-h6WGbTKZ45hAwRw8tWW-17" target="ILp8-n_kelNuU-kEh7t1-197" edge="1">
          <mxGeometry relative="1" as="geometry" />
        </mxCell>
        <mxCell id="-h6WGbTKZ45hAwRw8tWW-66" style="edgeStyle=orthogonalEdgeStyle;rounded=0;orthogonalLoop=1;jettySize=auto;html=1;entryX=0.533;entryY=0.999;entryDx=0;entryDy=0;entryPerimeter=0;endArrow=none;startFill=0;" parent="1" source="-h6WGbTKZ45hAwRw8tWW-19" target="ILp8-n_kelNuU-kEh7t1-197" edge="1">
          <mxGeometry relative="1" as="geometry" />
        </mxCell>
        <mxCell id="-h6WGbTKZ45hAwRw8tWW-67" style="edgeStyle=orthogonalEdgeStyle;rounded=0;orthogonalLoop=1;jettySize=auto;html=1;entryX=0.452;entryY=0.991;entryDx=0;entryDy=0;entryPerimeter=0;endArrow=none;startFill=0;" parent="1" source="-h6WGbTKZ45hAwRw8tWW-21" target="ILp8-n_kelNuU-kEh7t1-197" edge="1">
          <mxGeometry relative="1" as="geometry" />
        </mxCell>
        <mxCell id="-h6WGbTKZ45hAwRw8tWW-68" style="edgeStyle=orthogonalEdgeStyle;rounded=0;orthogonalLoop=1;jettySize=auto;html=1;endArrow=none;startFill=0;entryX=0.365;entryY=0.997;entryDx=0;entryDy=0;entryPerimeter=0;" parent="1" source="-h6WGbTKZ45hAwRw8tWW-23" target="ILp8-n_kelNuU-kEh7t1-197" edge="1">
          <mxGeometry relative="1" as="geometry">
            <mxPoint x="710" y="480" as="targetPoint" />
          </mxGeometry>
        </mxCell>
        <mxCell id="-h6WGbTKZ45hAwRw8tWW-69" style="edgeStyle=orthogonalEdgeStyle;rounded=0;orthogonalLoop=1;jettySize=auto;html=1;endArrow=none;startFill=0;entryX=0.592;entryY=0.996;entryDx=0;entryDy=0;entryPerimeter=0;" parent="1" source="-h6WGbTKZ45hAwRw8tWW-9" target="ILp8-n_kelNuU-kEh7t1-92" edge="1">
          <mxGeometry relative="1" as="geometry">
            <mxPoint x="641" y="230" as="targetPoint" />
          </mxGeometry>
        </mxCell>
        <mxCell id="-h6WGbTKZ45hAwRw8tWW-70" style="edgeStyle=orthogonalEdgeStyle;rounded=0;orthogonalLoop=1;jettySize=auto;html=1;entryX=0.5;entryY=1;entryDx=0;entryDy=0;endArrow=none;startFill=0;" parent="1" source="-h6WGbTKZ45hAwRw8tWW-11" target="ILp8-n_kelNuU-kEh7t1-92" edge="1">
          <mxGeometry relative="1" as="geometry" />
        </mxCell>
        <mxCell id="-h6WGbTKZ45hAwRw8tWW-71" style="edgeStyle=orthogonalEdgeStyle;rounded=0;orthogonalLoop=1;jettySize=auto;html=1;entryX=0.408;entryY=0.997;entryDx=0;entryDy=0;entryPerimeter=0;endArrow=none;startFill=0;" parent="1" source="-h6WGbTKZ45hAwRw8tWW-13" target="ILp8-n_kelNuU-kEh7t1-92" edge="1">
          <mxGeometry relative="1" as="geometry" />
        </mxCell>
        <mxCell id="-h6WGbTKZ45hAwRw8tWW-72" style="edgeStyle=orthogonalEdgeStyle;rounded=0;orthogonalLoop=1;jettySize=auto;html=1;entryX=0.312;entryY=0.993;entryDx=0;entryDy=0;entryPerimeter=0;endArrow=none;startFill=0;" parent="1" source="-h6WGbTKZ45hAwRw8tWW-15" target="ILp8-n_kelNuU-kEh7t1-92" edge="1">
          <mxGeometry relative="1" as="geometry" />
        </mxCell>
        <mxCell id="-h6WGbTKZ45hAwRw8tWW-73" style="edgeStyle=orthogonalEdgeStyle;rounded=0;orthogonalLoop=1;jettySize=auto;html=1;entryX=0.441;entryY=1.006;entryDx=0;entryDy=0;entryPerimeter=0;endArrow=none;startFill=0;" parent="1" source="-h6WGbTKZ45hAwRw8tWW-1" target="ILp8-n_kelNuU-kEh7t1-1" edge="1">
          <mxGeometry relative="1" as="geometry">
            <mxPoint x="120" y="180" as="targetPoint" />
          </mxGeometry>
        </mxCell>
        <mxCell id="-h6WGbTKZ45hAwRw8tWW-74" style="edgeStyle=orthogonalEdgeStyle;rounded=0;orthogonalLoop=1;jettySize=auto;html=1;entryX=0.356;entryY=1.006;entryDx=0;entryDy=0;entryPerimeter=0;endArrow=none;startFill=0;" parent="1" source="-h6WGbTKZ45hAwRw8tWW-3" target="ILp8-n_kelNuU-kEh7t1-1" edge="1">
          <mxGeometry relative="1" as="geometry" />
        </mxCell>
        <mxCell id="-h6WGbTKZ45hAwRw8tWW-75" style="edgeStyle=orthogonalEdgeStyle;rounded=0;orthogonalLoop=1;jettySize=auto;html=1;endArrow=none;startFill=0;entryX=0.269;entryY=1.006;entryDx=0;entryDy=0;entryPerimeter=0;" parent="1" source="-h6WGbTKZ45hAwRw8tWW-5" target="ILp8-n_kelNuU-kEh7t1-1" edge="1">
          <mxGeometry relative="1" as="geometry">
            <mxPoint x="110" y="140" as="targetPoint" />
          </mxGeometry>
        </mxCell>
        <mxCell id="-h6WGbTKZ45hAwRw8tWW-76" style="edgeStyle=orthogonalEdgeStyle;rounded=0;orthogonalLoop=1;jettySize=auto;html=1;endArrow=none;startFill=0;entryX=0.207;entryY=1.011;entryDx=0;entryDy=0;entryPerimeter=0;" parent="1" source="-h6WGbTKZ45hAwRw8tWW-7" target="ILp8-n_kelNuU-kEh7t1-1" edge="1">
          <mxGeometry relative="1" as="geometry">
            <mxPoint x="100" y="140" as="targetPoint" />
          </mxGeometry>
        </mxCell>
        <mxCell id="-h6WGbTKZ45hAwRw8tWW-77" style="edgeStyle=orthogonalEdgeStyle;rounded=0;orthogonalLoop=1;jettySize=auto;html=1;entryX=0.537;entryY=1;entryDx=0;entryDy=0;entryPerimeter=0;endArrow=none;startFill=0;" parent="1" source="-h6WGbTKZ45hAwRw8tWW-33" target="ILp8-n_kelNuU-kEh7t1-322" edge="1">
          <mxGeometry relative="1" as="geometry" />
        </mxCell>
        <mxCell id="-h6WGbTKZ45hAwRw8tWW-78" style="edgeStyle=orthogonalEdgeStyle;rounded=0;orthogonalLoop=1;jettySize=auto;html=1;entryX=0.444;entryY=1.002;entryDx=0;entryDy=0;entryPerimeter=0;endArrow=none;startFill=0;" parent="1" source="-h6WGbTKZ45hAwRw8tWW-35" target="ILp8-n_kelNuU-kEh7t1-322" edge="1">
          <mxGeometry relative="1" as="geometry" />
        </mxCell>
        <mxCell id="-h6WGbTKZ45hAwRw8tWW-79" style="edgeStyle=orthogonalEdgeStyle;rounded=0;orthogonalLoop=1;jettySize=auto;html=1;entryX=0.362;entryY=0.999;entryDx=0;entryDy=0;entryPerimeter=0;endArrow=none;startFill=0;" parent="1" source="-h6WGbTKZ45hAwRw8tWW-37" target="ILp8-n_kelNuU-kEh7t1-322" edge="1">
          <mxGeometry relative="1" as="geometry" />
        </mxCell>
        <mxCell id="-h6WGbTKZ45hAwRw8tWW-80" style="edgeStyle=orthogonalEdgeStyle;rounded=0;orthogonalLoop=1;jettySize=auto;html=1;entryX=0.282;entryY=0.994;entryDx=0;entryDy=0;entryPerimeter=0;endArrow=none;startFill=0;" parent="1" source="-h6WGbTKZ45hAwRw8tWW-39" target="ILp8-n_kelNuU-kEh7t1-322" edge="1">
          <mxGeometry relative="1" as="geometry" />
        </mxCell>
      </root>
    </mxGraphModel>
  </diagram>
</mxfile>
